<?xml version="1.0" encoding="utf-8" standalone="no"?>
<!DOCTYPE svg PUBLIC "-//W3C//DTD SVG 1.1//EN"
  "http://www.w3.org/Graphics/SVG/1.1/DTD/svg11.dtd">
<svg xmlns:xlink="http://www.w3.org/1999/xlink" width="802.8pt" height="465.12pt" viewBox="0 0 802.8 465.12" xmlns="http://www.w3.org/2000/svg" version="1.1">
 <metadata>
  <rdf:RDF xmlns:dc="http://purl.org/dc/elements/1.1/" xmlns:cc="http://creativecommons.org/ns#" xmlns:rdf="http://www.w3.org/1999/02/22-rdf-syntax-ns#">
   <cc:Work>
    <dc:type rdf:resource="http://purl.org/dc/dcmitype/StillImage"/>
    <dc:date>2026-09-28T13:24:06.834863</dc:date>
    <dc:format>image/svg+xml</dc:format>
    <dc:creator>
     <cc:Agent>
      <dc:title>Matplotlib v3.10.9, https://matplotlib.org/</dc:title>
     </cc:Agent>
    </dc:creator>
   </cc:Work>
  </rdf:RDF>
 </metadata>
 <defs>
  <style type="text/css">*{stroke-linejoin: round; stroke-linecap: butt}</style>
 </defs>
 <g id="figure_1">
  <g id="patch_1">
   <path d="M 0 465.12 
L 802.8 465.12 
L 802.8 0 
L 0 0 
z
" style="fill: #ffffff"/>
  </g>
  <g id="axes_1">
   <g id="patch_2">
    <path d="M 49.86 432.144 
L 752.94 432.144 
L 752.94 32.976 
L 49.86 32.976 
z
" clip-path="url(#p3baae30c4f)" style="fill: #f8fafc; stroke: #17324d; stroke-width: 2.5; stroke-linejoin: miter"/>
   </g>
   <g id="patch_3">
    <path d="M 96.732 219.2544 
L 252.972 219.2544 
Q 276.408 219.2544 276.408 205.9488 
L 276.408 90.6336 
Q 276.408 77.328 252.972 77.328 
L 96.732 77.328 
Q 73.296 77.328 73.296 90.6336 
L 73.296 205.9488 
Q 73.296 219.2544 96.732 219.2544 
z
" clip-path="url(#p3baae30c4f)" style="fill: #ccfbf1; stroke: #0f766e; stroke-width: 2; stroke-linejoin: miter"/>
   </g>
   <g id="patch_4">
    <path d="M 323.28 219.2544 
L 479.52 219.2544 
Q 502.956 219.2544 502.956 205.9488 
L 502.956 90.6336 
Q 502.956 77.328 479.52 77.328 
L 323.28 77.328 
Q 299.844 77.328 299.844 90.6336 
L 299.844 205.9488 
Q 299.844 219.2544 323.28 219.2544 
z
" clip-path="url(#p3baae30c4f)" style="fill: #e0f2fe; stroke: #0f2942; stroke-width: 2; stroke-linejoin: miter"/>
   </g>
   <g id="patch_5">
    <path d="M 549.828 219.2544 
L 706.068 219.2544 
Q 729.504 219.2544 729.504 205.9488 
L 729.504 90.6336 
Q 729.504 77.328 706.068 77.328 
L 549.828 77.328 
Q 526.392 77.328 526.392 90.6336 
L 526.392 205.9488 
Q 526.392 219.2544 549.828 219.2544 
z
" clip-path="url(#p3baae30c4f)" style="fill: #f3e8ff; stroke: #6b21a8; stroke-width: 2; stroke-linejoin: miter"/>
   </g>
   <g id="patch_6">
    <path d="M 96.732 396.6624 
L 377.964 396.6624 
Q 401.4 396.6624 401.4 383.3568 
L 401.4 259.1712 
Q 401.4 245.8656 377.964 245.8656 
L 96.732 245.8656 
Q 73.296 245.8656 73.296 259.1712 
L 73.296 383.3568 
Q 73.296 396.6624 96.732 396.6624 
z
" clip-path="url(#p3baae30c4f)" style="fill: #dcfce7; stroke: #15803d; stroke-width: 2; stroke-linejoin: miter"/>
   </g>
   <g id="patch_7">
    <path d="M 424.836 396.6624 
L 706.068 396.6624 
Q 729.504 396.6624 729.504 383.3568 
L 729.504 259.1712 
Q 729.504 245.8656 706.068 245.8656 
L 424.836 245.8656 
Q 401.4 245.8656 401.4 259.1712 
L 401.4 383.3568 
Q 401.4 396.6624 424.836 396.6624 
z
" clip-path="url(#p3baae30c4f)" style="fill: #ffedd5; stroke: #c2410c; stroke-width: 2; stroke-linejoin: miter"/>
   </g>
   <g id="text_1">
    <!-- ARQUITETURA COGNITIVA MULTI-XAPP: CA-RDL (FASE 2 / 5G-ADV &amp; 6G) -->
    <g style="fill: #17324d" transform="translate(141.922031 50.7168) scale(0.13 -0.13)">
     <defs>
      <path id="DejaVuSans-Bold-41" d="M 3419 850 
L 1538 850 
L 1241 0 
L 31 0 
L 1759 4666 
L 3194 4666 
L 4922 0 
L 3713 0 
L 3419 850 
z
M 1838 1716 
L 3116 1716 
L 2478 3572 
L 1838 1716 
z
" transform="scale(0.015625)"/>
      <path id="DejaVuSans-Bold-52" d="M 2297 2597 
Q 2675 2597 2839 2737 
Q 3003 2878 3003 3200 
Q 3003 3519 2839 3656 
Q 2675 3794 2297 3794 
L 1791 3794 
L 1791 2597 
L 2297 2597 
z
M 1791 1766 
L 1791 0 
L 588 0 
L 588 4666 
L 2425 4666 
Q 3347 4666 3776 4356 
Q 4206 4047 4206 3378 
Q 4206 2916 3982 2619 
Q 3759 2322 3309 2181 
Q 3556 2125 3751 1926 
Q 3947 1728 4147 1325 
L 4800 0 
L 3519 0 
L 2950 1159 
Q 2778 1509 2601 1637 
Q 2425 1766 2131 1766 
L 1791 1766 
z
" transform="scale(0.015625)"/>
      <path id="DejaVuSans-Bold-51" d="M 2847 -84 
L 2753 -84 
Q 1600 -84 959 553 
Q 319 1191 319 2328 
Q 319 3463 958 4106 
Q 1597 4750 2719 4750 
Q 3853 4750 4486 4112 
Q 5119 3475 5119 2328 
Q 5119 1541 4783 972 
Q 4447 403 3816 116 
L 4756 -934 
L 3609 -934 
L 2847 -84 
z
M 2719 3878 
Q 2169 3878 1866 3472 
Q 1563 3066 1563 2328 
Q 1563 1578 1859 1179 
Q 2156 781 2719 781 
Q 3272 781 3575 1187 
Q 3878 1594 3878 2328 
Q 3878 3066 3575 3472 
Q 3272 3878 2719 3878 
z
" transform="scale(0.015625)"/>
      <path id="DejaVuSans-Bold-55" d="M 588 4666 
L 1791 4666 
L 1791 1869 
Q 1791 1291 1980 1042 
Q 2169 794 2597 794 
Q 3028 794 3217 1042 
Q 3406 1291 3406 1869 
L 3406 4666 
L 4609 4666 
L 4609 1869 
Q 4609 878 4112 393 
Q 3616 -91 2597 -91 
Q 1581 -91 1084 393 
Q 588 878 588 1869 
L 588 4666 
z
" transform="scale(0.015625)"/>
      <path id="DejaVuSans-Bold-49" d="M 588 4666 
L 1791 4666 
L 1791 0 
L 588 0 
L 588 4666 
z
" transform="scale(0.015625)"/>
      <path id="DejaVuSans-Bold-54" d="M 31 4666 
L 4331 4666 
L 4331 3756 
L 2784 3756 
L 2784 0 
L 1581 0 
L 1581 3756 
L 31 3756 
L 31 4666 
z
" transform="scale(0.015625)"/>
      <path id="DejaVuSans-Bold-45" d="M 588 4666 
L 3834 4666 
L 3834 3756 
L 1791 3756 
L 1791 2888 
L 3713 2888 
L 3713 1978 
L 1791 1978 
L 1791 909 
L 3903 909 
L 3903 0 
L 588 0 
L 588 4666 
z
" transform="scale(0.015625)"/>
      <path id="DejaVuSans-Bold-20" transform="scale(0.015625)"/>
      <path id="DejaVuSans-Bold-43" d="M 4288 256 
Q 3956 84 3597 -3 
Q 3238 -91 2847 -91 
Q 1681 -91 1000 561 
Q 319 1213 319 2328 
Q 319 3447 1000 4098 
Q 1681 4750 2847 4750 
Q 3238 4750 3597 4662 
Q 3956 4575 4288 4403 
L 4288 3438 
Q 3953 3666 3628 3772 
Q 3303 3878 2944 3878 
Q 2300 3878 1931 3465 
Q 1563 3053 1563 2328 
Q 1563 1606 1931 1193 
Q 2300 781 2944 781 
Q 3303 781 3628 887 
Q 3953 994 4288 1222 
L 4288 256 
z
" transform="scale(0.015625)"/>
      <path id="DejaVuSans-Bold-4f" d="M 2719 3878 
Q 2169 3878 1866 3472 
Q 1563 3066 1563 2328 
Q 1563 1594 1866 1187 
Q 2169 781 2719 781 
Q 3272 781 3575 1187 
Q 3878 1594 3878 2328 
Q 3878 3066 3575 3472 
Q 3272 3878 2719 3878 
z
M 2719 4750 
Q 3844 4750 4481 4106 
Q 5119 3463 5119 2328 
Q 5119 1197 4481 553 
Q 3844 -91 2719 -91 
Q 1597 -91 958 553 
Q 319 1197 319 2328 
Q 319 3463 958 4106 
Q 1597 4750 2719 4750 
z
" transform="scale(0.015625)"/>
      <path id="DejaVuSans-Bold-47" d="M 4781 347 
Q 4331 128 3847 18 
Q 3363 -91 2847 -91 
Q 1681 -91 1000 561 
Q 319 1213 319 2328 
Q 319 3456 1012 4103 
Q 1706 4750 2913 4750 
Q 3378 4750 3804 4662 
Q 4231 4575 4609 4403 
L 4609 3438 
Q 4219 3659 3833 3768 
Q 3447 3878 3059 3878 
Q 2341 3878 1952 3476 
Q 1563 3075 1563 2328 
Q 1563 1588 1938 1184 
Q 2313 781 3003 781 
Q 3191 781 3352 804 
Q 3513 828 3641 878 
L 3641 1784 
L 2906 1784 
L 2906 2591 
L 4781 2591 
L 4781 347 
z
" transform="scale(0.015625)"/>
      <path id="DejaVuSans-Bold-4e" d="M 588 4666 
L 1931 4666 
L 3628 1466 
L 3628 4666 
L 4769 4666 
L 4769 0 
L 3425 0 
L 1728 3200 
L 1728 0 
L 588 0 
L 588 4666 
z
" transform="scale(0.015625)"/>
      <path id="DejaVuSans-Bold-56" d="M 31 4666 
L 1241 4666 
L 2478 1222 
L 3713 4666 
L 4922 4666 
L 3194 0 
L 1759 0 
L 31 4666 
z
" transform="scale(0.015625)"/>
      <path id="DejaVuSans-Bold-4d" d="M 588 4666 
L 2119 4666 
L 3181 2169 
L 4250 4666 
L 5778 4666 
L 5778 0 
L 4641 0 
L 4641 3413 
L 3566 897 
L 2803 897 
L 1728 3413 
L 1728 0 
L 588 0 
L 588 4666 
z
" transform="scale(0.015625)"/>
      <path id="DejaVuSans-Bold-4c" d="M 588 4666 
L 1791 4666 
L 1791 909 
L 3903 909 
L 3903 0 
L 588 0 
L 588 4666 
z
" transform="scale(0.015625)"/>
      <path id="DejaVuSans-Bold-2d" d="M 347 2297 
L 2309 2297 
L 2309 1388 
L 347 1388 
L 347 2297 
z
" transform="scale(0.015625)"/>
      <path id="DejaVuSans-Bold-58" d="M 3188 2381 
L 4806 0 
L 3553 0 
L 2463 1594 
L 1381 0 
L 122 0 
L 1741 2381 
L 184 4666 
L 1441 4666 
L 2463 3163 
L 3481 4666 
L 4744 4666 
L 3188 2381 
z
" transform="scale(0.015625)"/>
      <path id="DejaVuSans-Bold-50" d="M 588 4666 
L 2584 4666 
Q 3475 4666 3951 4270 
Q 4428 3875 4428 3144 
Q 4428 2409 3951 2014 
Q 3475 1619 2584 1619 
L 1791 1619 
L 1791 0 
L 588 0 
L 588 4666 
z
M 1791 3794 
L 1791 2491 
L 2456 2491 
Q 2806 2491 2997 2661 
Q 3188 2831 3188 3144 
Q 3188 3456 2997 3625 
Q 2806 3794 2456 3794 
L 1791 3794 
z
" transform="scale(0.015625)"/>
      <path id="DejaVuSans-Bold-3a" d="M 716 3500 
L 1844 3500 
L 1844 2291 
L 716 2291 
L 716 3500 
z
M 716 1209 
L 1844 1209 
L 1844 0 
L 716 0 
L 716 1209 
z
" transform="scale(0.015625)"/>
      <path id="DejaVuSans-Bold-44" d="M 1791 3756 
L 1791 909 
L 2222 909 
Q 2959 909 3348 1275 
Q 3738 1641 3738 2338 
Q 3738 3031 3350 3393 
Q 2963 3756 2222 3756 
L 1791 3756 
z
M 588 4666 
L 1856 4666 
Q 2919 4666 3439 4514 
Q 3959 4363 4331 4000 
Q 4659 3684 4818 3271 
Q 4978 2859 4978 2338 
Q 4978 1809 4818 1395 
Q 4659 981 4331 666 
Q 3956 303 3431 151 
Q 2906 0 1856 0 
L 588 0 
L 588 4666 
z
" transform="scale(0.015625)"/>
      <path id="DejaVuSans-Bold-28" d="M 2413 -844 
L 1484 -844 
Q 1006 -72 778 623 
Q 550 1319 550 2003 
Q 550 2688 779 3389 
Q 1009 4091 1484 4856 
L 2413 4856 
Q 2013 4116 1813 3408 
Q 1613 2700 1613 2009 
Q 1613 1319 1811 609 
Q 2009 -100 2413 -844 
z
" transform="scale(0.015625)"/>
      <path id="DejaVuSans-Bold-46" d="M 588 4666 
L 3834 4666 
L 3834 3756 
L 1791 3756 
L 1791 2888 
L 3713 2888 
L 3713 1978 
L 1791 1978 
L 1791 0 
L 588 0 
L 588 4666 
z
" transform="scale(0.015625)"/>
      <path id="DejaVuSans-Bold-53" d="M 3834 4519 
L 3834 3531 
Q 3450 3703 3084 3790 
Q 2719 3878 2394 3878 
Q 1963 3878 1756 3759 
Q 1550 3641 1550 3391 
Q 1550 3203 1689 3098 
Q 1828 2994 2194 2919 
L 2706 2816 
Q 3484 2659 3812 2340 
Q 4141 2022 4141 1434 
Q 4141 663 3683 286 
Q 3225 -91 2284 -91 
Q 1841 -91 1394 -6 
Q 947 78 500 244 
L 500 1259 
Q 947 1022 1364 901 
Q 1781 781 2169 781 
Q 2563 781 2772 912 
Q 2981 1044 2981 1288 
Q 2981 1506 2839 1625 
Q 2697 1744 2272 1838 
L 1806 1941 
Q 1106 2091 782 2419 
Q 459 2747 459 3303 
Q 459 4000 909 4375 
Q 1359 4750 2203 4750 
Q 2588 4750 2994 4692 
Q 3400 4634 3834 4519 
z
" transform="scale(0.015625)"/>
      <path id="DejaVuSans-Bold-32" d="M 1844 884 
L 3897 884 
L 3897 0 
L 506 0 
L 506 884 
L 2209 2388 
Q 2438 2594 2547 2791 
Q 2656 2988 2656 3200 
Q 2656 3528 2436 3728 
Q 2216 3928 1850 3928 
Q 1569 3928 1234 3808 
Q 900 3688 519 3450 
L 519 4475 
Q 925 4609 1322 4679 
Q 1719 4750 2100 4750 
Q 2938 4750 3402 4381 
Q 3866 4013 3866 3353 
Q 3866 2972 3669 2642 
Q 3472 2313 2841 1759 
L 1844 884 
z
" transform="scale(0.015625)"/>
      <path id="DejaVuSans-Bold-2f" d="M 1644 4666 
L 2338 4666 
L 691 -594 
L 0 -594 
L 1644 4666 
z
" transform="scale(0.015625)"/>
      <path id="DejaVuSans-Bold-35" d="M 678 4666 
L 3669 4666 
L 3669 3781 
L 1638 3781 
L 1638 3059 
Q 1775 3097 1914 3117 
Q 2053 3138 2203 3138 
Q 3056 3138 3531 2711 
Q 4006 2284 4006 1522 
Q 4006 766 3489 337 
Q 2972 -91 2053 -91 
Q 1656 -91 1267 -14 
Q 878 63 494 219 
L 494 1166 
Q 875 947 1217 837 
Q 1559 728 1863 728 
Q 2300 728 2551 942 
Q 2803 1156 2803 1522 
Q 2803 1891 2551 2103 
Q 2300 2316 1863 2316 
Q 1603 2316 1309 2248 
Q 1016 2181 678 2041 
L 678 4666 
z
" transform="scale(0.015625)"/>
      <path id="DejaVuSans-Bold-26" d="M 2497 3097 
L 3775 1691 
Q 3941 1909 4027 2181 
Q 4113 2453 4128 2797 
L 5100 2797 
Q 5053 2228 4879 1784 
Q 4706 1341 4397 1006 
L 5313 0 
L 3988 0 
L 3681 341 
Q 3353 122 2990 15 
Q 2628 -91 2222 -91 
Q 1400 -91 892 342 
Q 384 775 384 1459 
Q 384 1916 607 2267 
Q 831 2619 1338 2950 
Q 1206 3116 1143 3281 
Q 1081 3447 1081 3628 
Q 1081 4138 1478 4444 
Q 1875 4750 2534 4750 
Q 2819 4750 3126 4704 
Q 3434 4659 3769 4569 
L 3769 3700 
Q 3475 3850 3212 3922 
Q 2950 3994 2700 3994 
Q 2459 3994 2326 3901 
Q 2194 3809 2194 3641 
Q 2194 3534 2270 3398 
Q 2347 3263 2497 3097 
z
M 1875 2322 
Q 1672 2175 1569 1989 
Q 1466 1803 1466 1581 
Q 1466 1222 1731 969 
Q 1997 716 2369 716 
Q 2578 716 2759 780 
Q 2941 844 3097 972 
L 1875 2322 
z
" transform="scale(0.015625)"/>
      <path id="DejaVuSans-Bold-36" d="M 2316 2303 
Q 2000 2303 1842 2098 
Q 1684 1894 1684 1484 
Q 1684 1075 1842 870 
Q 2000 666 2316 666 
Q 2634 666 2792 870 
Q 2950 1075 2950 1484 
Q 2950 1894 2792 2098 
Q 2634 2303 2316 2303 
z
M 3803 4544 
L 3803 3681 
Q 3506 3822 3243 3889 
Q 2981 3956 2731 3956 
Q 2194 3956 1894 3657 
Q 1594 3359 1544 2772 
Q 1750 2925 1990 3001 
Q 2231 3078 2516 3078 
Q 3231 3078 3670 2659 
Q 4109 2241 4109 1563 
Q 4109 813 3618 361 
Q 3128 -91 2303 -91 
Q 1394 -91 895 523 
Q 397 1138 397 2266 
Q 397 3422 980 4083 
Q 1563 4744 2578 4744 
Q 2900 4744 3203 4694 
Q 3506 4644 3803 4544 
z
" transform="scale(0.015625)"/>
      <path id="DejaVuSans-Bold-29" d="M 513 -844 
Q 913 -100 1113 609 
Q 1313 1319 1313 2009 
Q 1313 2700 1113 3408 
Q 913 4116 513 4856 
L 1441 4856 
Q 1916 4091 2145 3389 
Q 2375 2688 2375 2003 
Q 2375 1319 2147 623 
Q 1919 -72 1441 -844 
L 513 -844 
z
" transform="scale(0.015625)"/>
     </defs>
     <use xlink:href="#DejaVuSans-Bold-41"/>
     <use xlink:href="#DejaVuSans-Bold-52" transform="translate(77.392578 0)"/>
     <use xlink:href="#DejaVuSans-Bold-51" transform="translate(154.394531 0)"/>
     <use xlink:href="#DejaVuSans-Bold-55" transform="translate(239.404297 0)"/>
     <use xlink:href="#DejaVuSans-Bold-49" transform="translate(320.605469 0)"/>
     <use xlink:href="#DejaVuSans-Bold-54" transform="translate(357.8125 0)"/>
     <use xlink:href="#DejaVuSans-Bold-45" transform="translate(426.025391 0)"/>
     <use xlink:href="#DejaVuSans-Bold-54" transform="translate(494.335938 0)"/>
     <use xlink:href="#DejaVuSans-Bold-55" transform="translate(562.548828 0)"/>
     <use xlink:href="#DejaVuSans-Bold-52" transform="translate(643.75 0)"/>
     <use xlink:href="#DejaVuSans-Bold-41" transform="translate(720.751953 0)"/>
     <use xlink:href="#DejaVuSans-Bold-20" transform="translate(798.144531 0)"/>
     <use xlink:href="#DejaVuSans-Bold-43" transform="translate(832.958984 0)"/>
     <use xlink:href="#DejaVuSans-Bold-4f" transform="translate(906.347656 0)"/>
     <use xlink:href="#DejaVuSans-Bold-47" transform="translate(991.357422 0)"/>
     <use xlink:href="#DejaVuSans-Bold-4e" transform="translate(1073.4375 0)"/>
     <use xlink:href="#DejaVuSans-Bold-49" transform="translate(1157.128906 0)"/>
     <use xlink:href="#DejaVuSans-Bold-54" transform="translate(1194.335938 0)"/>
     <use xlink:href="#DejaVuSans-Bold-49" transform="translate(1262.548828 0)"/>
     <use xlink:href="#DejaVuSans-Bold-56" transform="translate(1299.755859 0)"/>
     <use xlink:href="#DejaVuSans-Bold-41" transform="translate(1370.398438 0)"/>
     <use xlink:href="#DejaVuSans-Bold-20" transform="translate(1447.791016 0)"/>
     <use xlink:href="#DejaVuSans-Bold-4d" transform="translate(1482.605469 0)"/>
     <use xlink:href="#DejaVuSans-Bold-55" transform="translate(1582.117188 0)"/>
     <use xlink:href="#DejaVuSans-Bold-4c" transform="translate(1663.318359 0)"/>
     <use xlink:href="#DejaVuSans-Bold-54" transform="translate(1710.539062 0)"/>
     <use xlink:href="#DejaVuSans-Bold-49" transform="translate(1778.751953 0)"/>
     <use xlink:href="#DejaVuSans-Bold-2d" transform="translate(1815.958984 0)"/>
     <use xlink:href="#DejaVuSans-Bold-58" transform="translate(1849.337891 0)"/>
     <use xlink:href="#DejaVuSans-Bold-41" transform="translate(1926.4375 0)"/>
     <use xlink:href="#DejaVuSans-Bold-50" transform="translate(2003.830078 0)"/>
     <use xlink:href="#DejaVuSans-Bold-50" transform="translate(2077.121094 0)"/>
     <use xlink:href="#DejaVuSans-Bold-3a" transform="translate(2150.412109 0)"/>
     <use xlink:href="#DejaVuSans-Bold-20" transform="translate(2190.402344 0)"/>
     <use xlink:href="#DejaVuSans-Bold-43" transform="translate(2225.216797 0)"/>
     <use xlink:href="#DejaVuSans-Bold-41" transform="translate(2298.605469 0)"/>
     <use xlink:href="#DejaVuSans-Bold-2d" transform="translate(2375.998047 0)"/>
     <use xlink:href="#DejaVuSans-Bold-52" transform="translate(2417.501953 0)"/>
     <use xlink:href="#DejaVuSans-Bold-44" transform="translate(2494.503906 0)"/>
     <use xlink:href="#DejaVuSans-Bold-4c" transform="translate(2577.511719 0)"/>
     <use xlink:href="#DejaVuSans-Bold-20" transform="translate(2641.232422 0)"/>
     <use xlink:href="#DejaVuSans-Bold-28" transform="translate(2676.046875 0)"/>
     <use xlink:href="#DejaVuSans-Bold-46" transform="translate(2721.75 0)"/>
     <use xlink:href="#DejaVuSans-Bold-41" transform="translate(2778.560547 0)"/>
     <use xlink:href="#DejaVuSans-Bold-53" transform="translate(2855.953125 0)"/>
     <use xlink:href="#DejaVuSans-Bold-45" transform="translate(2927.974609 0)"/>
     <use xlink:href="#DejaVuSans-Bold-20" transform="translate(2996.285156 0)"/>
     <use xlink:href="#DejaVuSans-Bold-32" transform="translate(3031.099609 0)"/>
     <use xlink:href="#DejaVuSans-Bold-20" transform="translate(3100.679688 0)"/>
     <use xlink:href="#DejaVuSans-Bold-2f" transform="translate(3135.494141 0)"/>
     <use xlink:href="#DejaVuSans-Bold-20" transform="translate(3172.017578 0)"/>
     <use xlink:href="#DejaVuSans-Bold-35" transform="translate(3206.832031 0)"/>
     <use xlink:href="#DejaVuSans-Bold-47" transform="translate(3276.412109 0)"/>
     <use xlink:href="#DejaVuSans-Bold-2d" transform="translate(3358.492188 0)"/>
     <use xlink:href="#DejaVuSans-Bold-41" transform="translate(3399.996094 0)"/>
     <use xlink:href="#DejaVuSans-Bold-44" transform="translate(3477.388672 0)"/>
     <use xlink:href="#DejaVuSans-Bold-56" transform="translate(3560.396484 0)"/>
     <use xlink:href="#DejaVuSans-Bold-20" transform="translate(3637.789062 0)"/>
     <use xlink:href="#DejaVuSans-Bold-26" transform="translate(3672.603516 0)"/>
     <use xlink:href="#DejaVuSans-Bold-20" transform="translate(3759.810547 0)"/>
     <use xlink:href="#DejaVuSans-Bold-36" transform="translate(3794.625 0)"/>
     <use xlink:href="#DejaVuSans-Bold-47" transform="translate(3864.205078 0)"/>
     <use xlink:href="#DejaVuSans-Bold-29" transform="translate(3946.285156 0)"/>
    </g>
   </g>
   <g id="text_2">
    <!-- 1. Ingestão &amp; CKG -->
    <g style="fill: #0f766e" transform="translate(126.237977 129.382786) scale(0.095 -0.095)">
     <defs>
      <path id="DejaVuSans-Bold-31" d="M 750 831 
L 1813 831 
L 1813 3847 
L 722 3622 
L 722 4441 
L 1806 4666 
L 2950 4666 
L 2950 831 
L 4013 831 
L 4013 0 
L 750 0 
L 750 831 
z
" transform="scale(0.015625)"/>
      <path id="DejaVuSans-Bold-2e" d="M 653 1209 
L 1778 1209 
L 1778 0 
L 653 0 
L 653 1209 
z
" transform="scale(0.015625)"/>
      <path id="DejaVuSans-Bold-6e" d="M 4056 2131 
L 4056 0 
L 2931 0 
L 2931 347 
L 2931 1631 
Q 2931 2084 2911 2256 
Q 2891 2428 2841 2509 
Q 2775 2619 2662 2680 
Q 2550 2741 2406 2741 
Q 2056 2741 1856 2470 
Q 1656 2200 1656 1722 
L 1656 0 
L 538 0 
L 538 3500 
L 1656 3500 
L 1656 2988 
Q 1909 3294 2193 3439 
Q 2478 3584 2822 3584 
Q 3428 3584 3742 3212 
Q 4056 2841 4056 2131 
z
" transform="scale(0.015625)"/>
      <path id="DejaVuSans-Bold-67" d="M 2919 594 
Q 2688 288 2409 144 
Q 2131 0 1766 0 
Q 1125 0 706 504 
Q 288 1009 288 1791 
Q 288 2575 706 3076 
Q 1125 3578 1766 3578 
Q 2131 3578 2409 3434 
Q 2688 3291 2919 2981 
L 2919 3500 
L 4044 3500 
L 4044 353 
Q 4044 -491 3511 -936 
Q 2978 -1381 1966 -1381 
Q 1638 -1381 1331 -1331 
Q 1025 -1281 716 -1178 
L 716 -306 
Q 1009 -475 1290 -558 
Q 1572 -641 1856 -641 
Q 2406 -641 2662 -400 
Q 2919 -159 2919 353 
L 2919 594 
z
M 2181 2772 
Q 1834 2772 1640 2515 
Q 1447 2259 1447 1791 
Q 1447 1309 1634 1061 
Q 1822 813 2181 813 
Q 2531 813 2725 1069 
Q 2919 1325 2919 1791 
Q 2919 2259 2725 2515 
Q 2531 2772 2181 2772 
z
" transform="scale(0.015625)"/>
      <path id="DejaVuSans-Bold-65" d="M 4031 1759 
L 4031 1441 
L 1416 1441 
Q 1456 1047 1700 850 
Q 1944 653 2381 653 
Q 2734 653 3104 758 
Q 3475 863 3866 1075 
L 3866 213 
Q 3469 63 3072 -14 
Q 2675 -91 2278 -91 
Q 1328 -91 801 392 
Q 275 875 275 1747 
Q 275 2603 792 3093 
Q 1309 3584 2216 3584 
Q 3041 3584 3536 3087 
Q 4031 2591 4031 1759 
z
M 2881 2131 
Q 2881 2450 2695 2645 
Q 2509 2841 2209 2841 
Q 1884 2841 1681 2658 
Q 1478 2475 1428 2131 
L 2881 2131 
z
" transform="scale(0.015625)"/>
      <path id="DejaVuSans-Bold-73" d="M 3272 3391 
L 3272 2541 
Q 2913 2691 2578 2766 
Q 2244 2841 1947 2841 
Q 1628 2841 1473 2761 
Q 1319 2681 1319 2516 
Q 1319 2381 1436 2309 
Q 1553 2238 1856 2203 
L 2053 2175 
Q 2913 2066 3209 1816 
Q 3506 1566 3506 1031 
Q 3506 472 3093 190 
Q 2681 -91 1863 -91 
Q 1516 -91 1145 -36 
Q 775 19 384 128 
L 384 978 
Q 719 816 1070 734 
Q 1422 653 1784 653 
Q 2113 653 2278 743 
Q 2444 834 2444 1013 
Q 2444 1163 2330 1236 
Q 2216 1309 1875 1350 
L 1678 1375 
Q 931 1469 631 1722 
Q 331 1975 331 2491 
Q 331 3047 712 3315 
Q 1094 3584 1881 3584 
Q 2191 3584 2531 3537 
Q 2872 3491 3272 3391 
z
" transform="scale(0.015625)"/>
      <path id="DejaVuSans-Bold-74" d="M 1759 4494 
L 1759 3500 
L 2913 3500 
L 2913 2700 
L 1759 2700 
L 1759 1216 
Q 1759 972 1856 886 
Q 1953 800 2241 800 
L 2816 800 
L 2816 0 
L 1856 0 
Q 1194 0 917 276 
Q 641 553 641 1216 
L 641 2700 
L 84 2700 
L 84 3500 
L 641 3500 
L 641 4494 
L 1759 4494 
z
" transform="scale(0.015625)"/>
      <path id="DejaVuSans-Bold-e3" d="M 2106 1575 
Q 1756 1575 1579 1456 
Q 1403 1338 1403 1106 
Q 1403 894 1545 773 
Q 1688 653 1941 653 
Q 2256 653 2472 879 
Q 2688 1106 2688 1447 
L 2688 1575 
L 2106 1575 
z
M 3816 1997 
L 3816 0 
L 2688 0 
L 2688 519 
Q 2463 200 2181 54 
Q 1900 -91 1497 -91 
Q 953 -91 614 226 
Q 275 544 275 1050 
Q 275 1666 698 1953 
Q 1122 2241 2028 2241 
L 2688 2241 
L 2688 2328 
Q 2688 2594 2478 2717 
Q 2269 2841 1825 2841 
Q 1466 2841 1156 2769 
Q 847 2697 581 2553 
L 581 3406 
Q 941 3494 1303 3539 
Q 1666 3584 2028 3584 
Q 2975 3584 3395 3211 
Q 3816 2838 3816 1997 
z
M 2190 4263 
L 2018 4378 
Q 2006 4384 1987 4397 
Q 1840 4494 1762 4494 
Q 1650 4494 1590 4397 
Q 1531 4300 1531 4116 
L 1531 4091 
L 1097 4091 
Q 1097 4516 1257 4747 
Q 1418 4978 1709 4978 
Q 1822 4978 1936 4936 
Q 2050 4894 2178 4800 
L 2368 4666 
Q 2437 4619 2495 4594 
Q 2553 4569 2600 4569 
Q 2712 4569 2774 4669 
Q 2837 4769 2837 4947 
L 2837 4972 
L 3272 4972 
Q 3272 4547 3111 4315 
Q 2950 4084 2659 4084 
Q 2547 4084 2442 4121 
Q 2337 4159 2190 4263 
z
" transform="scale(0.015625)"/>
      <path id="DejaVuSans-Bold-6f" d="M 2203 2784 
Q 1831 2784 1636 2517 
Q 1441 2250 1441 1747 
Q 1441 1244 1636 976 
Q 1831 709 2203 709 
Q 2569 709 2762 976 
Q 2956 1244 2956 1747 
Q 2956 2250 2762 2517 
Q 2569 2784 2203 2784 
z
M 2203 3584 
Q 3106 3584 3614 3096 
Q 4122 2609 4122 1747 
Q 4122 884 3614 396 
Q 3106 -91 2203 -91 
Q 1297 -91 786 396 
Q 275 884 275 1747 
Q 275 2609 786 3096 
Q 1297 3584 2203 3584 
z
" transform="scale(0.015625)"/>
      <path id="DejaVuSans-Bold-4b" d="M 588 4666 
L 1791 4666 
L 1791 2963 
L 3525 4666 
L 4922 4666 
L 2675 2456 
L 5153 0 
L 3647 0 
L 1791 1838 
L 1791 0 
L 588 0 
L 588 4666 
z
" transform="scale(0.015625)"/>
     </defs>
     <use xlink:href="#DejaVuSans-Bold-31"/>
     <use xlink:href="#DejaVuSans-Bold-2e" transform="translate(69.580078 0)"/>
     <use xlink:href="#DejaVuSans-Bold-20" transform="translate(107.568359 0)"/>
     <use xlink:href="#DejaVuSans-Bold-49" transform="translate(142.382812 0)"/>
     <use xlink:href="#DejaVuSans-Bold-6e" transform="translate(179.589844 0)"/>
     <use xlink:href="#DejaVuSans-Bold-67" transform="translate(250.78125 0)"/>
     <use xlink:href="#DejaVuSans-Bold-65" transform="translate(322.363281 0)"/>
     <use xlink:href="#DejaVuSans-Bold-73" transform="translate(390.185547 0)"/>
     <use xlink:href="#DejaVuSans-Bold-74" transform="translate(449.707031 0)"/>
     <use xlink:href="#DejaVuSans-Bold-e3" transform="translate(497.509766 0)"/>
     <use xlink:href="#DejaVuSans-Bold-6f" transform="translate(564.990234 0)"/>
     <use xlink:href="#DejaVuSans-Bold-20" transform="translate(633.691406 0)"/>
     <use xlink:href="#DejaVuSans-Bold-26" transform="translate(668.505859 0)"/>
     <use xlink:href="#DejaVuSans-Bold-20" transform="translate(755.712891 0)"/>
     <use xlink:href="#DejaVuSans-Bold-43" transform="translate(790.527344 0)"/>
     <use xlink:href="#DejaVuSans-Bold-4b" transform="translate(863.916016 0)"/>
     <use xlink:href="#DejaVuSans-Bold-47" transform="translate(941.40625 0)"/>
    </g>
    <!-- (O-RAN SC Near-RT RIC) -->
    <g style="fill: #0f766e" transform="translate(110.924422 140.094927) scale(0.095 -0.095)">
     <defs>
      <path id="DejaVuSans-Bold-61" d="M 2106 1575 
Q 1756 1575 1579 1456 
Q 1403 1338 1403 1106 
Q 1403 894 1545 773 
Q 1688 653 1941 653 
Q 2256 653 2472 879 
Q 2688 1106 2688 1447 
L 2688 1575 
L 2106 1575 
z
M 3816 1997 
L 3816 0 
L 2688 0 
L 2688 519 
Q 2463 200 2181 54 
Q 1900 -91 1497 -91 
Q 953 -91 614 226 
Q 275 544 275 1050 
Q 275 1666 698 1953 
Q 1122 2241 2028 2241 
L 2688 2241 
L 2688 2328 
Q 2688 2594 2478 2717 
Q 2269 2841 1825 2841 
Q 1466 2841 1156 2769 
Q 847 2697 581 2553 
L 581 3406 
Q 941 3494 1303 3539 
Q 1666 3584 2028 3584 
Q 2975 3584 3395 3211 
Q 3816 2838 3816 1997 
z
" transform="scale(0.015625)"/>
      <path id="DejaVuSans-Bold-72" d="M 3138 2547 
Q 2991 2616 2845 2648 
Q 2700 2681 2553 2681 
Q 2122 2681 1889 2404 
Q 1656 2128 1656 1613 
L 1656 0 
L 538 0 
L 538 3500 
L 1656 3500 
L 1656 2925 
Q 1872 3269 2151 3426 
Q 2431 3584 2822 3584 
Q 2878 3584 2943 3579 
Q 3009 3575 3134 3559 
L 3138 2547 
z
" transform="scale(0.015625)"/>
     </defs>
     <use xlink:href="#DejaVuSans-Bold-28"/>
     <use xlink:href="#DejaVuSans-Bold-4f" transform="translate(45.703125 0)"/>
     <use xlink:href="#DejaVuSans-Bold-2d" transform="translate(132.587891 0)"/>
     <use xlink:href="#DejaVuSans-Bold-52" transform="translate(174.091797 0)"/>
     <use xlink:href="#DejaVuSans-Bold-41" transform="translate(251.09375 0)"/>
     <use xlink:href="#DejaVuSans-Bold-4e" transform="translate(328.486328 0)"/>
     <use xlink:href="#DejaVuSans-Bold-20" transform="translate(412.177734 0)"/>
     <use xlink:href="#DejaVuSans-Bold-53" transform="translate(446.992188 0)"/>
     <use xlink:href="#DejaVuSans-Bold-43" transform="translate(519.013672 0)"/>
     <use xlink:href="#DejaVuSans-Bold-20" transform="translate(592.402344 0)"/>
     <use xlink:href="#DejaVuSans-Bold-4e" transform="translate(627.216797 0)"/>
     <use xlink:href="#DejaVuSans-Bold-65" transform="translate(710.908203 0)"/>
     <use xlink:href="#DejaVuSans-Bold-61" transform="translate(778.730469 0)"/>
     <use xlink:href="#DejaVuSans-Bold-72" transform="translate(846.210938 0)"/>
     <use xlink:href="#DejaVuSans-Bold-2d" transform="translate(895.527344 0)"/>
     <use xlink:href="#DejaVuSans-Bold-52" transform="translate(937.03125 0)"/>
     <use xlink:href="#DejaVuSans-Bold-54" transform="translate(1009.533203 0)"/>
     <use xlink:href="#DejaVuSans-Bold-20" transform="translate(1077.746094 0)"/>
     <use xlink:href="#DejaVuSans-Bold-52" transform="translate(1112.560547 0)"/>
     <use xlink:href="#DejaVuSans-Bold-49" transform="translate(1189.5625 0)"/>
     <use xlink:href="#DejaVuSans-Bold-43" transform="translate(1226.769531 0)"/>
     <use xlink:href="#DejaVuSans-Bold-29" transform="translate(1300.158203 0)"/>
    </g>
    <!-- • ASN.1 E2SM-KPM -->
    <g style="fill: #0f766e" transform="translate(123.769461 150.732848) scale(0.095 -0.095)">
     <defs>
      <path id="DejaVuSans-Bold-2022" d="M 922 2381 
Q 922 2613 1005 2816 
Q 1088 3019 1247 3175 
Q 1413 3334 1616 3417 
Q 1819 3500 2047 3500 
Q 2275 3500 2479 3415 
Q 2684 3331 2841 3175 
Q 3003 3013 3086 2811 
Q 3169 2609 3169 2381 
Q 3169 2150 3084 1945 
Q 3000 1741 2841 1581 
Q 2681 1422 2476 1337 
Q 2272 1253 2041 1253 
Q 1813 1253 1609 1337 
Q 1406 1422 1247 1581 
Q 1091 1741 1006 1945 
Q 922 2150 922 2381 
z
" transform="scale(0.015625)"/>
     </defs>
     <use xlink:href="#DejaVuSans-Bold-2022"/>
     <use xlink:href="#DejaVuSans-Bold-20" transform="translate(63.916016 0)"/>
     <use xlink:href="#DejaVuSans-Bold-41" transform="translate(98.730469 0)"/>
     <use xlink:href="#DejaVuSans-Bold-53" transform="translate(176.123047 0)"/>
     <use xlink:href="#DejaVuSans-Bold-4e" transform="translate(248.144531 0)"/>
     <use xlink:href="#DejaVuSans-Bold-2e" transform="translate(331.835938 0)"/>
     <use xlink:href="#DejaVuSans-Bold-31" transform="translate(369.824219 0)"/>
     <use xlink:href="#DejaVuSans-Bold-20" transform="translate(439.404297 0)"/>
     <use xlink:href="#DejaVuSans-Bold-45" transform="translate(474.21875 0)"/>
     <use xlink:href="#DejaVuSans-Bold-32" transform="translate(542.529297 0)"/>
     <use xlink:href="#DejaVuSans-Bold-53" transform="translate(612.109375 0)"/>
     <use xlink:href="#DejaVuSans-Bold-4d" transform="translate(684.130859 0)"/>
     <use xlink:href="#DejaVuSans-Bold-2d" transform="translate(783.642578 0)"/>
     <use xlink:href="#DejaVuSans-Bold-4b" transform="translate(825.146484 0)"/>
     <use xlink:href="#DejaVuSans-Bold-50" transform="translate(902.636719 0)"/>
     <use xlink:href="#DejaVuSans-Bold-4d" transform="translate(975.927734 0)"/>
    </g>
    <!-- • Knowledge Graph (TTL 50ms) -->
    <g style="fill: #0f766e" transform="translate(91.04493 161.37077) scale(0.095 -0.095)">
     <defs>
      <path id="DejaVuSans-Bold-77" d="M 225 3500 
L 1313 3500 
L 1900 1088 
L 2491 3500 
L 3425 3500 
L 4013 1113 
L 4603 3500 
L 5691 3500 
L 4769 0 
L 3547 0 
L 2956 2406 
L 2369 0 
L 1147 0 
L 225 3500 
z
" transform="scale(0.015625)"/>
      <path id="DejaVuSans-Bold-6c" d="M 538 4863 
L 1656 4863 
L 1656 0 
L 538 0 
L 538 4863 
z
" transform="scale(0.015625)"/>
      <path id="DejaVuSans-Bold-64" d="M 2919 2988 
L 2919 4863 
L 4044 4863 
L 4044 0 
L 2919 0 
L 2919 506 
Q 2688 197 2409 53 
Q 2131 -91 1766 -91 
Q 1119 -91 703 423 
Q 288 938 288 1747 
Q 288 2556 703 3070 
Q 1119 3584 1766 3584 
Q 2128 3584 2408 3439 
Q 2688 3294 2919 2988 
z
M 2181 722 
Q 2541 722 2730 984 
Q 2919 1247 2919 1747 
Q 2919 2247 2730 2509 
Q 2541 2772 2181 2772 
Q 1825 2772 1636 2509 
Q 1447 2247 1447 1747 
Q 1447 1247 1636 984 
Q 1825 722 2181 722 
z
" transform="scale(0.015625)"/>
      <path id="DejaVuSans-Bold-70" d="M 1656 506 
L 1656 -1331 
L 538 -1331 
L 538 3500 
L 1656 3500 
L 1656 2988 
Q 1888 3294 2169 3439 
Q 2450 3584 2816 3584 
Q 3463 3584 3878 3070 
Q 4294 2556 4294 1747 
Q 4294 938 3878 423 
Q 3463 -91 2816 -91 
Q 2450 -91 2169 54 
Q 1888 200 1656 506 
z
M 2400 2772 
Q 2041 2772 1848 2508 
Q 1656 2244 1656 1747 
Q 1656 1250 1848 986 
Q 2041 722 2400 722 
Q 2759 722 2948 984 
Q 3138 1247 3138 1747 
Q 3138 2247 2948 2509 
Q 2759 2772 2400 2772 
z
" transform="scale(0.015625)"/>
      <path id="DejaVuSans-Bold-68" d="M 4056 2131 
L 4056 0 
L 2931 0 
L 2931 347 
L 2931 1625 
Q 2931 2084 2911 2256 
Q 2891 2428 2841 2509 
Q 2775 2619 2662 2680 
Q 2550 2741 2406 2741 
Q 2056 2741 1856 2470 
Q 1656 2200 1656 1722 
L 1656 0 
L 538 0 
L 538 4863 
L 1656 4863 
L 1656 2988 
Q 1909 3294 2193 3439 
Q 2478 3584 2822 3584 
Q 3428 3584 3742 3212 
Q 4056 2841 4056 2131 
z
" transform="scale(0.015625)"/>
      <path id="DejaVuSans-Bold-30" d="M 2944 2338 
Q 2944 3213 2780 3570 
Q 2616 3928 2228 3928 
Q 1841 3928 1675 3570 
Q 1509 3213 1509 2338 
Q 1509 1453 1675 1090 
Q 1841 728 2228 728 
Q 2613 728 2778 1090 
Q 2944 1453 2944 2338 
z
M 4147 2328 
Q 4147 1169 3647 539 
Q 3147 -91 2228 -91 
Q 1306 -91 806 539 
Q 306 1169 306 2328 
Q 306 3491 806 4120 
Q 1306 4750 2228 4750 
Q 3147 4750 3647 4120 
Q 4147 3491 4147 2328 
z
" transform="scale(0.015625)"/>
      <path id="DejaVuSans-Bold-6d" d="M 3781 2919 
Q 3994 3244 4286 3414 
Q 4578 3584 4928 3584 
Q 5531 3584 5847 3212 
Q 6163 2841 6163 2131 
L 6163 0 
L 5038 0 
L 5038 1825 
Q 5041 1866 5042 1909 
Q 5044 1953 5044 2034 
Q 5044 2406 4934 2573 
Q 4825 2741 4581 2741 
Q 4263 2741 4089 2478 
Q 3916 2216 3909 1719 
L 3909 0 
L 2784 0 
L 2784 1825 
Q 2784 2406 2684 2573 
Q 2584 2741 2328 2741 
Q 2006 2741 1831 2477 
Q 1656 2213 1656 1722 
L 1656 0 
L 531 0 
L 531 3500 
L 1656 3500 
L 1656 2988 
Q 1863 3284 2130 3434 
Q 2397 3584 2719 3584 
Q 3081 3584 3359 3409 
Q 3638 3234 3781 2919 
z
" transform="scale(0.015625)"/>
     </defs>
     <use xlink:href="#DejaVuSans-Bold-2022"/>
     <use xlink:href="#DejaVuSans-Bold-20" transform="translate(63.916016 0)"/>
     <use xlink:href="#DejaVuSans-Bold-4b" transform="translate(98.730469 0)"/>
     <use xlink:href="#DejaVuSans-Bold-6e" transform="translate(176.220703 0)"/>
     <use xlink:href="#DejaVuSans-Bold-6f" transform="translate(247.412109 0)"/>
     <use xlink:href="#DejaVuSans-Bold-77" transform="translate(316.113281 0)"/>
     <use xlink:href="#DejaVuSans-Bold-6c" transform="translate(408.496094 0)"/>
     <use xlink:href="#DejaVuSans-Bold-65" transform="translate(442.773438 0)"/>
     <use xlink:href="#DejaVuSans-Bold-64" transform="translate(510.595703 0)"/>
     <use xlink:href="#DejaVuSans-Bold-67" transform="translate(582.177734 0)"/>
     <use xlink:href="#DejaVuSans-Bold-65" transform="translate(653.759766 0)"/>
     <use xlink:href="#DejaVuSans-Bold-20" transform="translate(721.582031 0)"/>
     <use xlink:href="#DejaVuSans-Bold-47" transform="translate(756.396484 0)"/>
     <use xlink:href="#DejaVuSans-Bold-72" transform="translate(838.476562 0)"/>
     <use xlink:href="#DejaVuSans-Bold-61" transform="translate(887.792969 0)"/>
     <use xlink:href="#DejaVuSans-Bold-70" transform="translate(955.273438 0)"/>
     <use xlink:href="#DejaVuSans-Bold-68" transform="translate(1026.855469 0)"/>
     <use xlink:href="#DejaVuSans-Bold-20" transform="translate(1098.046875 0)"/>
     <use xlink:href="#DejaVuSans-Bold-28" transform="translate(1132.861328 0)"/>
     <use xlink:href="#DejaVuSans-Bold-54" transform="translate(1178.564453 0)"/>
     <use xlink:href="#DejaVuSans-Bold-54" transform="translate(1249.027344 0)"/>
     <use xlink:href="#DejaVuSans-Bold-4c" transform="translate(1317.240234 0)"/>
     <use xlink:href="#DejaVuSans-Bold-20" transform="translate(1380.960938 0)"/>
     <use xlink:href="#DejaVuSans-Bold-35" transform="translate(1415.775391 0)"/>
     <use xlink:href="#DejaVuSans-Bold-30" transform="translate(1485.355469 0)"/>
     <use xlink:href="#DejaVuSans-Bold-6d" transform="translate(1554.935547 0)"/>
     <use xlink:href="#DejaVuSans-Bold-73" transform="translate(1659.134766 0)"/>
     <use xlink:href="#DejaVuSans-Bold-29" transform="translate(1718.65625 0)"/>
    </g>
    <!-- • Topologia Dinâmica GNN -->
    <g style="fill: #0f766e" transform="translate(104.584656 172.538911) scale(0.095 -0.095)">
     <defs>
      <path id="DejaVuSans-Bold-69" d="M 538 3500 
L 1656 3500 
L 1656 0 
L 538 0 
L 538 3500 
z
M 538 4863 
L 1656 4863 
L 1656 3950 
L 538 3950 
L 538 4863 
z
" transform="scale(0.015625)"/>
      <path id="DejaVuSans-Bold-e2" d="M 2106 1575 
Q 1756 1575 1579 1456 
Q 1403 1338 1403 1106 
Q 1403 894 1545 773 
Q 1688 653 1941 653 
Q 2256 653 2472 879 
Q 2688 1106 2688 1447 
L 2688 1575 
L 2106 1575 
z
M 3816 1997 
L 3816 0 
L 2688 0 
L 2688 519 
Q 2463 200 2181 54 
Q 1900 -91 1497 -91 
Q 953 -91 614 226 
Q 275 544 275 1050 
Q 275 1666 698 1953 
Q 1122 2241 2028 2241 
L 2688 2241 
L 2688 2328 
Q 2688 2594 2478 2717 
Q 2269 2841 1825 2841 
Q 1466 2841 1156 2769 
Q 847 2697 581 2553 
L 581 3406 
Q 941 3494 1303 3539 
Q 1666 3584 2028 3584 
Q 2975 3584 3395 3211 
Q 3816 2838 3816 1997 
z
M 1806 5119 
L 2562 5119 
L 3362 3944 
L 2806 3944 
L 2184 4647 
L 1562 3944 
L 1006 3944 
L 1806 5119 
z
" transform="scale(0.015625)"/>
      <path id="DejaVuSans-Bold-63" d="M 3366 3391 
L 3366 2478 
Q 3138 2634 2908 2709 
Q 2678 2784 2431 2784 
Q 1963 2784 1702 2511 
Q 1441 2238 1441 1747 
Q 1441 1256 1702 982 
Q 1963 709 2431 709 
Q 2694 709 2930 787 
Q 3166 866 3366 1019 
L 3366 103 
Q 3103 6 2833 -42 
Q 2563 -91 2291 -91 
Q 1344 -91 809 395 
Q 275 881 275 1747 
Q 275 2613 809 3098 
Q 1344 3584 2291 3584 
Q 2566 3584 2833 3536 
Q 3100 3488 3366 3391 
z
" transform="scale(0.015625)"/>
     </defs>
     <use xlink:href="#DejaVuSans-Bold-2022"/>
     <use xlink:href="#DejaVuSans-Bold-20" transform="translate(63.916016 0)"/>
     <use xlink:href="#DejaVuSans-Bold-54" transform="translate(98.730469 0)"/>
     <use xlink:href="#DejaVuSans-Bold-6f" transform="translate(153.693359 0)"/>
     <use xlink:href="#DejaVuSans-Bold-70" transform="translate(222.394531 0)"/>
     <use xlink:href="#DejaVuSans-Bold-6f" transform="translate(293.976562 0)"/>
     <use xlink:href="#DejaVuSans-Bold-6c" transform="translate(362.677734 0)"/>
     <use xlink:href="#DejaVuSans-Bold-6f" transform="translate(396.955078 0)"/>
     <use xlink:href="#DejaVuSans-Bold-67" transform="translate(465.65625 0)"/>
     <use xlink:href="#DejaVuSans-Bold-69" transform="translate(537.238281 0)"/>
     <use xlink:href="#DejaVuSans-Bold-61" transform="translate(571.515625 0)"/>
     <use xlink:href="#DejaVuSans-Bold-20" transform="translate(638.996094 0)"/>
     <use xlink:href="#DejaVuSans-Bold-44" transform="translate(673.810547 0)"/>
     <use xlink:href="#DejaVuSans-Bold-69" transform="translate(756.818359 0)"/>
     <use xlink:href="#DejaVuSans-Bold-6e" transform="translate(791.095703 0)"/>
     <use xlink:href="#DejaVuSans-Bold-e2" transform="translate(862.287109 0)"/>
     <use xlink:href="#DejaVuSans-Bold-6d" transform="translate(929.767578 0)"/>
     <use xlink:href="#DejaVuSans-Bold-69" transform="translate(1033.966797 0)"/>
     <use xlink:href="#DejaVuSans-Bold-63" transform="translate(1068.244141 0)"/>
     <use xlink:href="#DejaVuSans-Bold-61" transform="translate(1127.521484 0)"/>
     <use xlink:href="#DejaVuSans-Bold-20" transform="translate(1195.001953 0)"/>
     <use xlink:href="#DejaVuSans-Bold-47" transform="translate(1229.816406 0)"/>
     <use xlink:href="#DejaVuSans-Bold-4e" transform="translate(1311.896484 0)"/>
     <use xlink:href="#DejaVuSans-Bold-4e" transform="translate(1395.587891 0)"/>
    </g>
   </g>
   <g id="text_3">
    <!-- 2. Detecção &amp; Raciocínio -->
    <g style="fill: #0f2942" transform="translate(335.141953 129.698809) scale(0.095 -0.095)">
     <defs>
      <path id="DejaVuSans-Bold-e7" d="M 3366 3391 
L 3366 2478 
Q 3138 2634 2908 2709 
Q 2678 2784 2431 2784 
Q 1963 2784 1702 2511 
Q 1441 2238 1441 1747 
Q 1441 1256 1702 982 
Q 1963 709 2431 709 
Q 2694 709 2930 787 
Q 3166 866 3366 1019 
L 3366 103 
Q 3103 6 2833 -42 
Q 2563 -91 2291 -91 
Q 1344 -91 809 395 
Q 275 881 275 1747 
Q 275 2613 809 3098 
Q 1344 3584 2291 3584 
Q 2566 3584 2833 3536 
Q 3100 3488 3366 3391 
z
M 2457 0 
Q 2639 -194 2724 -359 
Q 2810 -525 2810 -672 
Q 2810 -969 2618 -1111 
Q 2426 -1253 2029 -1253 
Q 1879 -1253 1719 -1233 
Q 1560 -1213 1398 -1172 
L 1395 -697 
Q 1551 -747 1680 -770 
Q 1810 -794 1914 -794 
Q 2095 -794 2196 -722 
Q 2298 -650 2298 -525 
Q 2298 -444 2231 -316 
Q 2164 -188 2023 0 
L 2457 0 
z
" transform="scale(0.015625)"/>
      <path id="DejaVuSans-Bold-ed" d="M 538 3500 
L 1656 3500 
L 1656 0 
L 538 0 
L 538 3500 
z
M 1590 5119 
L 2474 5119 
L 1321 3944 
L 709 3944 
L 1590 5119 
z
" transform="scale(0.015625)"/>
     </defs>
     <use xlink:href="#DejaVuSans-Bold-32"/>
     <use xlink:href="#DejaVuSans-Bold-2e" transform="translate(69.580078 0)"/>
     <use xlink:href="#DejaVuSans-Bold-20" transform="translate(107.568359 0)"/>
     <use xlink:href="#DejaVuSans-Bold-44" transform="translate(142.382812 0)"/>
     <use xlink:href="#DejaVuSans-Bold-65" transform="translate(225.390625 0)"/>
     <use xlink:href="#DejaVuSans-Bold-74" transform="translate(293.212891 0)"/>
     <use xlink:href="#DejaVuSans-Bold-65" transform="translate(341.015625 0)"/>
     <use xlink:href="#DejaVuSans-Bold-63" transform="translate(408.837891 0)"/>
     <use xlink:href="#DejaVuSans-Bold-e7" transform="translate(468.115234 0)"/>
     <use xlink:href="#DejaVuSans-Bold-e3" transform="translate(527.392578 0)"/>
     <use xlink:href="#DejaVuSans-Bold-6f" transform="translate(594.873047 0)"/>
     <use xlink:href="#DejaVuSans-Bold-20" transform="translate(663.574219 0)"/>
     <use xlink:href="#DejaVuSans-Bold-26" transform="translate(698.388672 0)"/>
     <use xlink:href="#DejaVuSans-Bold-20" transform="translate(785.595703 0)"/>
     <use xlink:href="#DejaVuSans-Bold-52" transform="translate(820.410156 0)"/>
     <use xlink:href="#DejaVuSans-Bold-61" transform="translate(897.412109 0)"/>
     <use xlink:href="#DejaVuSans-Bold-63" transform="translate(964.892578 0)"/>
     <use xlink:href="#DejaVuSans-Bold-69" transform="translate(1024.169922 0)"/>
     <use xlink:href="#DejaVuSans-Bold-6f" transform="translate(1058.447266 0)"/>
     <use xlink:href="#DejaVuSans-Bold-63" transform="translate(1127.148438 0)"/>
     <use xlink:href="#DejaVuSans-Bold-ed" transform="translate(1186.425781 0)"/>
     <use xlink:href="#DejaVuSans-Bold-6e" transform="translate(1220.703125 0)"/>
     <use xlink:href="#DejaVuSans-Bold-69" transform="translate(1291.894531 0)"/>
     <use xlink:href="#DejaVuSans-Bold-6f" transform="translate(1326.171875 0)"/>
    </g>
    <!-- (GraphSAGE + SMOTE) -->
    <g style="fill: #0f2942" transform="translate(340.631172 140.336731) scale(0.095 -0.095)">
     <defs>
      <path id="DejaVuSans-Bold-2b" d="M 3053 4013 
L 3053 2375 
L 4684 2375 
L 4684 1638 
L 3053 1638 
L 3053 0 
L 2309 0 
L 2309 1638 
L 678 1638 
L 678 2375 
L 2309 2375 
L 2309 4013 
L 3053 4013 
z
" transform="scale(0.015625)"/>
     </defs>
     <use xlink:href="#DejaVuSans-Bold-28"/>
     <use xlink:href="#DejaVuSans-Bold-47" transform="translate(45.703125 0)"/>
     <use xlink:href="#DejaVuSans-Bold-72" transform="translate(127.783203 0)"/>
     <use xlink:href="#DejaVuSans-Bold-61" transform="translate(177.099609 0)"/>
     <use xlink:href="#DejaVuSans-Bold-70" transform="translate(244.580078 0)"/>
     <use xlink:href="#DejaVuSans-Bold-68" transform="translate(316.162109 0)"/>
     <use xlink:href="#DejaVuSans-Bold-53" transform="translate(387.353516 0)"/>
     <use xlink:href="#DejaVuSans-Bold-41" transform="translate(459.375 0)"/>
     <use xlink:href="#DejaVuSans-Bold-47" transform="translate(536.767578 0)"/>
     <use xlink:href="#DejaVuSans-Bold-45" transform="translate(618.847656 0)"/>
     <use xlink:href="#DejaVuSans-Bold-20" transform="translate(687.158203 0)"/>
     <use xlink:href="#DejaVuSans-Bold-2b" transform="translate(721.972656 0)"/>
     <use xlink:href="#DejaVuSans-Bold-20" transform="translate(805.761719 0)"/>
     <use xlink:href="#DejaVuSans-Bold-53" transform="translate(840.576172 0)"/>
     <use xlink:href="#DejaVuSans-Bold-4d" transform="translate(912.597656 0)"/>
     <use xlink:href="#DejaVuSans-Bold-4f" transform="translate(1012.109375 0)"/>
     <use xlink:href="#DejaVuSans-Bold-54" transform="translate(1097.119141 0)"/>
     <use xlink:href="#DejaVuSans-Bold-45" transform="translate(1165.332031 0)"/>
     <use xlink:href="#DejaVuSans-Bold-29" transform="translate(1233.642578 0)"/>
    </g>
    <!-- • Conflitos Diretos &amp; Indiretos -->
    <g style="fill: #0f2942" transform="translate(320.194297 150.974653) scale(0.095 -0.095)">
     <defs>
      <path id="DejaVuSans-Bold-66" d="M 2841 4863 
L 2841 4128 
L 2222 4128 
Q 1984 4128 1890 4042 
Q 1797 3956 1797 3744 
L 1797 3500 
L 2753 3500 
L 2753 2700 
L 1797 2700 
L 1797 0 
L 678 0 
L 678 2700 
L 122 2700 
L 122 3500 
L 678 3500 
L 678 3744 
Q 678 4316 997 4589 
Q 1316 4863 1984 4863 
L 2841 4863 
z
" transform="scale(0.015625)"/>
     </defs>
     <use xlink:href="#DejaVuSans-Bold-2022"/>
     <use xlink:href="#DejaVuSans-Bold-20" transform="translate(63.916016 0)"/>
     <use xlink:href="#DejaVuSans-Bold-43" transform="translate(98.730469 0)"/>
     <use xlink:href="#DejaVuSans-Bold-6f" transform="translate(172.119141 0)"/>
     <use xlink:href="#DejaVuSans-Bold-6e" transform="translate(240.820312 0)"/>
     <use xlink:href="#DejaVuSans-Bold-66" transform="translate(312.011719 0)"/>
     <use xlink:href="#DejaVuSans-Bold-6c" transform="translate(355.517578 0)"/>
     <use xlink:href="#DejaVuSans-Bold-69" transform="translate(389.794922 0)"/>
     <use xlink:href="#DejaVuSans-Bold-74" transform="translate(424.072266 0)"/>
     <use xlink:href="#DejaVuSans-Bold-6f" transform="translate(471.875 0)"/>
     <use xlink:href="#DejaVuSans-Bold-73" transform="translate(540.576172 0)"/>
     <use xlink:href="#DejaVuSans-Bold-20" transform="translate(600.097656 0)"/>
     <use xlink:href="#DejaVuSans-Bold-44" transform="translate(634.912109 0)"/>
     <use xlink:href="#DejaVuSans-Bold-69" transform="translate(717.919922 0)"/>
     <use xlink:href="#DejaVuSans-Bold-72" transform="translate(752.197266 0)"/>
     <use xlink:href="#DejaVuSans-Bold-65" transform="translate(801.513672 0)"/>
     <use xlink:href="#DejaVuSans-Bold-74" transform="translate(869.335938 0)"/>
     <use xlink:href="#DejaVuSans-Bold-6f" transform="translate(917.138672 0)"/>
     <use xlink:href="#DejaVuSans-Bold-73" transform="translate(985.839844 0)"/>
     <use xlink:href="#DejaVuSans-Bold-20" transform="translate(1045.361328 0)"/>
     <use xlink:href="#DejaVuSans-Bold-26" transform="translate(1080.175781 0)"/>
     <use xlink:href="#DejaVuSans-Bold-20" transform="translate(1167.382812 0)"/>
     <use xlink:href="#DejaVuSans-Bold-49" transform="translate(1202.197266 0)"/>
     <use xlink:href="#DejaVuSans-Bold-6e" transform="translate(1239.404297 0)"/>
     <use xlink:href="#DejaVuSans-Bold-64" transform="translate(1310.595703 0)"/>
     <use xlink:href="#DejaVuSans-Bold-69" transform="translate(1382.177734 0)"/>
     <use xlink:href="#DejaVuSans-Bold-72" transform="translate(1416.455078 0)"/>
     <use xlink:href="#DejaVuSans-Bold-65" transform="translate(1465.771484 0)"/>
     <use xlink:href="#DejaVuSans-Bold-74" transform="translate(1533.59375 0)"/>
     <use xlink:href="#DejaVuSans-Bold-6f" transform="translate(1581.396484 0)"/>
     <use xlink:href="#DejaVuSans-Bold-73" transform="translate(1650.097656 0)"/>
    </g>
    <!-- • Predição de Causalidade -->
    <g style="fill: #0f2942" transform="translate(330.832813 161.678481) scale(0.095 -0.095)">
     <defs>
      <path id="DejaVuSans-Bold-75" d="M 500 1363 
L 500 3500 
L 1625 3500 
L 1625 3150 
Q 1625 2866 1622 2436 
Q 1619 2006 1619 1863 
Q 1619 1441 1641 1255 
Q 1663 1069 1716 984 
Q 1784 875 1895 815 
Q 2006 756 2150 756 
Q 2500 756 2700 1025 
Q 2900 1294 2900 1772 
L 2900 3500 
L 4019 3500 
L 4019 0 
L 2900 0 
L 2900 506 
Q 2647 200 2364 54 
Q 2081 -91 1741 -91 
Q 1134 -91 817 281 
Q 500 653 500 1363 
z
" transform="scale(0.015625)"/>
     </defs>
     <use xlink:href="#DejaVuSans-Bold-2022"/>
     <use xlink:href="#DejaVuSans-Bold-20" transform="translate(63.916016 0)"/>
     <use xlink:href="#DejaVuSans-Bold-50" transform="translate(98.730469 0)"/>
     <use xlink:href="#DejaVuSans-Bold-72" transform="translate(172.021484 0)"/>
     <use xlink:href="#DejaVuSans-Bold-65" transform="translate(221.337891 0)"/>
     <use xlink:href="#DejaVuSans-Bold-64" transform="translate(289.160156 0)"/>
     <use xlink:href="#DejaVuSans-Bold-69" transform="translate(360.742188 0)"/>
     <use xlink:href="#DejaVuSans-Bold-e7" transform="translate(395.019531 0)"/>
     <use xlink:href="#DejaVuSans-Bold-e3" transform="translate(454.296875 0)"/>
     <use xlink:href="#DejaVuSans-Bold-6f" transform="translate(521.777344 0)"/>
     <use xlink:href="#DejaVuSans-Bold-20" transform="translate(590.478516 0)"/>
     <use xlink:href="#DejaVuSans-Bold-64" transform="translate(625.292969 0)"/>
     <use xlink:href="#DejaVuSans-Bold-65" transform="translate(696.875 0)"/>
     <use xlink:href="#DejaVuSans-Bold-20" transform="translate(764.697266 0)"/>
     <use xlink:href="#DejaVuSans-Bold-43" transform="translate(799.511719 0)"/>
     <use xlink:href="#DejaVuSans-Bold-61" transform="translate(872.900391 0)"/>
     <use xlink:href="#DejaVuSans-Bold-75" transform="translate(940.380859 0)"/>
     <use xlink:href="#DejaVuSans-Bold-73" transform="translate(1011.572266 0)"/>
     <use xlink:href="#DejaVuSans-Bold-61" transform="translate(1071.09375 0)"/>
     <use xlink:href="#DejaVuSans-Bold-6c" transform="translate(1138.574219 0)"/>
     <use xlink:href="#DejaVuSans-Bold-69" transform="translate(1172.851562 0)"/>
     <use xlink:href="#DejaVuSans-Bold-64" transform="translate(1207.128906 0)"/>
     <use xlink:href="#DejaVuSans-Bold-61" transform="translate(1278.710938 0)"/>
     <use xlink:href="#DejaVuSans-Bold-64" transform="translate(1346.191406 0)"/>
     <use xlink:href="#DejaVuSans-Bold-65" transform="translate(1417.773438 0)"/>
    </g>
    <!-- • Filtragem de Contexto -->
    <g style="fill: #0f2942" transform="translate(336.669375 172.316403) scale(0.095 -0.095)">
     <defs>
      <path id="DejaVuSans-Bold-78" d="M 1422 1791 
L 159 3500 
L 1344 3500 
L 2059 2463 
L 2784 3500 
L 3969 3500 
L 2706 1797 
L 4031 0 
L 2847 0 
L 2059 1106 
L 1281 0 
L 97 0 
L 1422 1791 
z
" transform="scale(0.015625)"/>
     </defs>
     <use xlink:href="#DejaVuSans-Bold-2022"/>
     <use xlink:href="#DejaVuSans-Bold-20" transform="translate(63.916016 0)"/>
     <use xlink:href="#DejaVuSans-Bold-46" transform="translate(98.730469 0)"/>
     <use xlink:href="#DejaVuSans-Bold-69" transform="translate(167.041016 0)"/>
     <use xlink:href="#DejaVuSans-Bold-6c" transform="translate(201.318359 0)"/>
     <use xlink:href="#DejaVuSans-Bold-74" transform="translate(235.595703 0)"/>
     <use xlink:href="#DejaVuSans-Bold-72" transform="translate(283.398438 0)"/>
     <use xlink:href="#DejaVuSans-Bold-61" transform="translate(332.714844 0)"/>
     <use xlink:href="#DejaVuSans-Bold-67" transform="translate(400.195312 0)"/>
     <use xlink:href="#DejaVuSans-Bold-65" transform="translate(471.777344 0)"/>
     <use xlink:href="#DejaVuSans-Bold-6d" transform="translate(539.599609 0)"/>
     <use xlink:href="#DejaVuSans-Bold-20" transform="translate(643.798828 0)"/>
     <use xlink:href="#DejaVuSans-Bold-64" transform="translate(678.613281 0)"/>
     <use xlink:href="#DejaVuSans-Bold-65" transform="translate(750.195312 0)"/>
     <use xlink:href="#DejaVuSans-Bold-20" transform="translate(818.017578 0)"/>
     <use xlink:href="#DejaVuSans-Bold-43" transform="translate(852.832031 0)"/>
     <use xlink:href="#DejaVuSans-Bold-6f" transform="translate(926.220703 0)"/>
     <use xlink:href="#DejaVuSans-Bold-6e" transform="translate(994.921875 0)"/>
     <use xlink:href="#DejaVuSans-Bold-74" transform="translate(1066.113281 0)"/>
     <use xlink:href="#DejaVuSans-Bold-65" transform="translate(1113.916016 0)"/>
     <use xlink:href="#DejaVuSans-Bold-78" transform="translate(1181.738281 0)"/>
     <use xlink:href="#DejaVuSans-Bold-74" transform="translate(1246.240234 0)"/>
     <use xlink:href="#DejaVuSans-Bold-6f" transform="translate(1294.042969 0)"/>
    </g>
   </g>
   <g id="text_4">
    <!-- 3. Otimização Safe-MAPPO -->
    <g style="fill: #6b21a8" transform="translate(556.471633 129.552895) scale(0.095 -0.095)">
     <defs>
      <path id="DejaVuSans-Bold-33" d="M 2981 2516 
Q 3453 2394 3698 2092 
Q 3944 1791 3944 1325 
Q 3944 631 3412 270 
Q 2881 -91 1863 -91 
Q 1503 -91 1142 -33 
Q 781 25 428 141 
L 428 1069 
Q 766 900 1098 814 
Q 1431 728 1753 728 
Q 2231 728 2486 893 
Q 2741 1059 2741 1369 
Q 2741 1688 2480 1852 
Q 2219 2016 1709 2016 
L 1228 2016 
L 1228 2791 
L 1734 2791 
Q 2188 2791 2409 2933 
Q 2631 3075 2631 3366 
Q 2631 3634 2415 3781 
Q 2200 3928 1806 3928 
Q 1516 3928 1219 3862 
Q 922 3797 628 3669 
L 628 4550 
Q 984 4650 1334 4700 
Q 1684 4750 2022 4750 
Q 2931 4750 3382 4451 
Q 3834 4153 3834 3553 
Q 3834 3144 3618 2883 
Q 3403 2622 2981 2516 
z
" transform="scale(0.015625)"/>
      <path id="DejaVuSans-Bold-7a" d="M 366 3500 
L 3419 3500 
L 3419 2719 
L 1575 800 
L 3419 800 
L 3419 0 
L 288 0 
L 288 781 
L 2131 2700 
L 366 2700 
L 366 3500 
z
" transform="scale(0.015625)"/>
     </defs>
     <use xlink:href="#DejaVuSans-Bold-33"/>
     <use xlink:href="#DejaVuSans-Bold-2e" transform="translate(69.580078 0)"/>
     <use xlink:href="#DejaVuSans-Bold-20" transform="translate(107.568359 0)"/>
     <use xlink:href="#DejaVuSans-Bold-4f" transform="translate(142.382812 0)"/>
     <use xlink:href="#DejaVuSans-Bold-74" transform="translate(227.392578 0)"/>
     <use xlink:href="#DejaVuSans-Bold-69" transform="translate(275.195312 0)"/>
     <use xlink:href="#DejaVuSans-Bold-6d" transform="translate(309.472656 0)"/>
     <use xlink:href="#DejaVuSans-Bold-69" transform="translate(413.671875 0)"/>
     <use xlink:href="#DejaVuSans-Bold-7a" transform="translate(447.949219 0)"/>
     <use xlink:href="#DejaVuSans-Bold-61" transform="translate(506.152344 0)"/>
     <use xlink:href="#DejaVuSans-Bold-e7" transform="translate(573.632812 0)"/>
     <use xlink:href="#DejaVuSans-Bold-e3" transform="translate(632.910156 0)"/>
     <use xlink:href="#DejaVuSans-Bold-6f" transform="translate(700.390625 0)"/>
     <use xlink:href="#DejaVuSans-Bold-20" transform="translate(769.091797 0)"/>
     <use xlink:href="#DejaVuSans-Bold-53" transform="translate(803.90625 0)"/>
     <use xlink:href="#DejaVuSans-Bold-61" transform="translate(875.927734 0)"/>
     <use xlink:href="#DejaVuSans-Bold-66" transform="translate(943.408203 0)"/>
     <use xlink:href="#DejaVuSans-Bold-65" transform="translate(986.914062 0)"/>
     <use xlink:href="#DejaVuSans-Bold-2d" transform="translate(1054.736328 0)"/>
     <use xlink:href="#DejaVuSans-Bold-4d" transform="translate(1096.240234 0)"/>
     <use xlink:href="#DejaVuSans-Bold-41" transform="translate(1195.751953 0)"/>
     <use xlink:href="#DejaVuSans-Bold-50" transform="translate(1273.144531 0)"/>
     <use xlink:href="#DejaVuSans-Bold-50" transform="translate(1346.435547 0)"/>
     <use xlink:href="#DejaVuSans-Bold-4f" transform="translate(1419.726562 0)"/>
    </g>
    <!-- (Multi-Agent Actor-Critic) -->
    <g style="fill: #6b21a8" transform="translate(559.885695 140.190817) scale(0.095 -0.095)">
     <use xlink:href="#DejaVuSans-Bold-28"/>
     <use xlink:href="#DejaVuSans-Bold-4d" transform="translate(45.703125 0)"/>
     <use xlink:href="#DejaVuSans-Bold-75" transform="translate(145.214844 0)"/>
     <use xlink:href="#DejaVuSans-Bold-6c" transform="translate(216.40625 0)"/>
     <use xlink:href="#DejaVuSans-Bold-74" transform="translate(250.683594 0)"/>
     <use xlink:href="#DejaVuSans-Bold-69" transform="translate(298.486328 0)"/>
     <use xlink:href="#DejaVuSans-Bold-2d" transform="translate(332.763672 0)"/>
     <use xlink:href="#DejaVuSans-Bold-41" transform="translate(374.267578 0)"/>
     <use xlink:href="#DejaVuSans-Bold-67" transform="translate(451.660156 0)"/>
     <use xlink:href="#DejaVuSans-Bold-65" transform="translate(523.242188 0)"/>
     <use xlink:href="#DejaVuSans-Bold-6e" transform="translate(591.064453 0)"/>
     <use xlink:href="#DejaVuSans-Bold-74" transform="translate(662.255859 0)"/>
     <use xlink:href="#DejaVuSans-Bold-20" transform="translate(710.058594 0)"/>
     <use xlink:href="#DejaVuSans-Bold-41" transform="translate(744.873047 0)"/>
     <use xlink:href="#DejaVuSans-Bold-63" transform="translate(822.265625 0)"/>
     <use xlink:href="#DejaVuSans-Bold-74" transform="translate(881.542969 0)"/>
     <use xlink:href="#DejaVuSans-Bold-6f" transform="translate(929.345703 0)"/>
     <use xlink:href="#DejaVuSans-Bold-72" transform="translate(998.046875 0)"/>
     <use xlink:href="#DejaVuSans-Bold-2d" transform="translate(1047.363281 0)"/>
     <use xlink:href="#DejaVuSans-Bold-43" transform="translate(1088.867188 0)"/>
     <use xlink:href="#DejaVuSans-Bold-72" transform="translate(1162.255859 0)"/>
     <use xlink:href="#DejaVuSans-Bold-69" transform="translate(1211.572266 0)"/>
     <use xlink:href="#DejaVuSans-Bold-74" transform="translate(1245.849609 0)"/>
     <use xlink:href="#DejaVuSans-Bold-69" transform="translate(1293.652344 0)"/>
     <use xlink:href="#DejaVuSans-Bold-63" transform="translate(1327.929688 0)"/>
     <use xlink:href="#DejaVuSans-Bold-29" transform="translate(1387.207031 0)"/>
    </g>
    <!-- • PPO-Lagrangian Multi-Obj -->
    <g style="fill: #6b21a8" transform="translate(553.692883 150.902958) scale(0.095 -0.095)">
     <defs>
      <path id="DejaVuSans-Bold-62" d="M 2400 722 
Q 2759 722 2948 984 
Q 3138 1247 3138 1747 
Q 3138 2247 2948 2509 
Q 2759 2772 2400 2772 
Q 2041 2772 1848 2508 
Q 1656 2244 1656 1747 
Q 1656 1250 1848 986 
Q 2041 722 2400 722 
z
M 1656 2988 
Q 1888 3294 2169 3439 
Q 2450 3584 2816 3584 
Q 3463 3584 3878 3070 
Q 4294 2556 4294 1747 
Q 4294 938 3878 423 
Q 3463 -91 2816 -91 
Q 2450 -91 2169 54 
Q 1888 200 1656 506 
L 1656 0 
L 538 0 
L 538 4863 
L 1656 4863 
L 1656 2988 
z
" transform="scale(0.015625)"/>
      <path id="DejaVuSans-Bold-6a" d="M 538 3500 
L 1656 3500 
L 1656 63 
Q 1656 -641 1318 -1011 
Q 981 -1381 341 -1381 
L -213 -1381 
L -213 -647 
L -19 -647 
Q 300 -647 419 -503 
Q 538 -359 538 63 
L 538 3500 
z
M 538 4863 
L 1656 4863 
L 1656 3950 
L 538 3950 
L 538 4863 
z
" transform="scale(0.015625)"/>
     </defs>
     <use xlink:href="#DejaVuSans-Bold-2022"/>
     <use xlink:href="#DejaVuSans-Bold-20" transform="translate(63.916016 0)"/>
     <use xlink:href="#DejaVuSans-Bold-50" transform="translate(98.730469 0)"/>
     <use xlink:href="#DejaVuSans-Bold-50" transform="translate(172.021484 0)"/>
     <use xlink:href="#DejaVuSans-Bold-4f" transform="translate(245.3125 0)"/>
     <use xlink:href="#DejaVuSans-Bold-2d" transform="translate(332.197266 0)"/>
     <use xlink:href="#DejaVuSans-Bold-4c" transform="translate(373.701172 0)"/>
     <use xlink:href="#DejaVuSans-Bold-61" transform="translate(437.421875 0)"/>
     <use xlink:href="#DejaVuSans-Bold-67" transform="translate(504.902344 0)"/>
     <use xlink:href="#DejaVuSans-Bold-72" transform="translate(576.484375 0)"/>
     <use xlink:href="#DejaVuSans-Bold-61" transform="translate(625.800781 0)"/>
     <use xlink:href="#DejaVuSans-Bold-6e" transform="translate(693.28125 0)"/>
     <use xlink:href="#DejaVuSans-Bold-67" transform="translate(764.472656 0)"/>
     <use xlink:href="#DejaVuSans-Bold-69" transform="translate(836.054688 0)"/>
     <use xlink:href="#DejaVuSans-Bold-61" transform="translate(870.332031 0)"/>
     <use xlink:href="#DejaVuSans-Bold-6e" transform="translate(937.8125 0)"/>
     <use xlink:href="#DejaVuSans-Bold-20" transform="translate(1009.003906 0)"/>
     <use xlink:href="#DejaVuSans-Bold-4d" transform="translate(1043.818359 0)"/>
     <use xlink:href="#DejaVuSans-Bold-75" transform="translate(1143.330078 0)"/>
     <use xlink:href="#DejaVuSans-Bold-6c" transform="translate(1214.521484 0)"/>
     <use xlink:href="#DejaVuSans-Bold-74" transform="translate(1248.798828 0)"/>
     <use xlink:href="#DejaVuSans-Bold-69" transform="translate(1296.601562 0)"/>
     <use xlink:href="#DejaVuSans-Bold-2d" transform="translate(1330.878906 0)"/>
     <use xlink:href="#DejaVuSans-Bold-4f" transform="translate(1372.382812 0)"/>
     <use xlink:href="#DejaVuSans-Bold-62" transform="translate(1457.392578 0)"/>
     <use xlink:href="#DejaVuSans-Bold-6a" transform="translate(1528.974609 0)"/>
    </g>
    <!-- • Action Masking Desacoplado -->
    <g style="fill: #6b21a8" transform="translate(546.413508 161.615098) scale(0.095 -0.095)">
     <defs>
      <path id="DejaVuSans-Bold-6b" d="M 538 4863 
L 1656 4863 
L 1656 2216 
L 2944 3500 
L 4244 3500 
L 2534 1894 
L 4378 0 
L 3022 0 
L 1656 1459 
L 1656 0 
L 538 0 
L 538 4863 
z
" transform="scale(0.015625)"/>
     </defs>
     <use xlink:href="#DejaVuSans-Bold-2022"/>
     <use xlink:href="#DejaVuSans-Bold-20" transform="translate(63.916016 0)"/>
     <use xlink:href="#DejaVuSans-Bold-41" transform="translate(98.730469 0)"/>
     <use xlink:href="#DejaVuSans-Bold-63" transform="translate(176.123047 0)"/>
     <use xlink:href="#DejaVuSans-Bold-74" transform="translate(235.400391 0)"/>
     <use xlink:href="#DejaVuSans-Bold-69" transform="translate(283.203125 0)"/>
     <use xlink:href="#DejaVuSans-Bold-6f" transform="translate(317.480469 0)"/>
     <use xlink:href="#DejaVuSans-Bold-6e" transform="translate(386.181641 0)"/>
     <use xlink:href="#DejaVuSans-Bold-20" transform="translate(457.373047 0)"/>
     <use xlink:href="#DejaVuSans-Bold-4d" transform="translate(492.1875 0)"/>
     <use xlink:href="#DejaVuSans-Bold-61" transform="translate(591.699219 0)"/>
     <use xlink:href="#DejaVuSans-Bold-73" transform="translate(659.179688 0)"/>
     <use xlink:href="#DejaVuSans-Bold-6b" transform="translate(718.701172 0)"/>
     <use xlink:href="#DejaVuSans-Bold-69" transform="translate(785.205078 0)"/>
     <use xlink:href="#DejaVuSans-Bold-6e" transform="translate(819.482422 0)"/>
     <use xlink:href="#DejaVuSans-Bold-67" transform="translate(890.673828 0)"/>
     <use xlink:href="#DejaVuSans-Bold-20" transform="translate(962.255859 0)"/>
     <use xlink:href="#DejaVuSans-Bold-44" transform="translate(997.070312 0)"/>
     <use xlink:href="#DejaVuSans-Bold-65" transform="translate(1080.078125 0)"/>
     <use xlink:href="#DejaVuSans-Bold-73" transform="translate(1147.900391 0)"/>
     <use xlink:href="#DejaVuSans-Bold-61" transform="translate(1207.421875 0)"/>
     <use xlink:href="#DejaVuSans-Bold-63" transform="translate(1274.902344 0)"/>
     <use xlink:href="#DejaVuSans-Bold-6f" transform="translate(1334.179688 0)"/>
     <use xlink:href="#DejaVuSans-Bold-70" transform="translate(1402.880859 0)"/>
     <use xlink:href="#DejaVuSans-Bold-6c" transform="translate(1474.462891 0)"/>
     <use xlink:href="#DejaVuSans-Bold-61" transform="translate(1508.740234 0)"/>
     <use xlink:href="#DejaVuSans-Bold-64" transform="translate(1576.220703 0)"/>
     <use xlink:href="#DejaVuSans-Bold-6f" transform="translate(1647.802734 0)"/>
    </g>
    <!-- • Decisão Sub-2ms -->
    <g style="fill: #6b21a8" transform="translate(577.444367 172.327239) scale(0.095 -0.095)">
     <use xlink:href="#DejaVuSans-Bold-2022"/>
     <use xlink:href="#DejaVuSans-Bold-20" transform="translate(63.916016 0)"/>
     <use xlink:href="#DejaVuSans-Bold-44" transform="translate(98.730469 0)"/>
     <use xlink:href="#DejaVuSans-Bold-65" transform="translate(181.738281 0)"/>
     <use xlink:href="#DejaVuSans-Bold-63" transform="translate(249.560547 0)"/>
     <use xlink:href="#DejaVuSans-Bold-69" transform="translate(308.837891 0)"/>
     <use xlink:href="#DejaVuSans-Bold-73" transform="translate(343.115234 0)"/>
     <use xlink:href="#DejaVuSans-Bold-e3" transform="translate(402.636719 0)"/>
     <use xlink:href="#DejaVuSans-Bold-6f" transform="translate(470.117188 0)"/>
     <use xlink:href="#DejaVuSans-Bold-20" transform="translate(538.818359 0)"/>
     <use xlink:href="#DejaVuSans-Bold-53" transform="translate(573.632812 0)"/>
     <use xlink:href="#DejaVuSans-Bold-75" transform="translate(645.654297 0)"/>
     <use xlink:href="#DejaVuSans-Bold-62" transform="translate(716.845703 0)"/>
     <use xlink:href="#DejaVuSans-Bold-2d" transform="translate(788.427734 0)"/>
     <use xlink:href="#DejaVuSans-Bold-32" transform="translate(829.931641 0)"/>
     <use xlink:href="#DejaVuSans-Bold-6d" transform="translate(899.511719 0)"/>
     <use xlink:href="#DejaVuSans-Bold-73" transform="translate(1003.710938 0)"/>
    </g>
   </g>
   <g id="text_5">
    <!-- 4. Two-Tier AI &amp; Real-Time dApp Loop -->
    <g style="fill: #15803d" transform="translate(137.80507 307.589195) scale(0.095 -0.095)">
     <defs>
      <path id="DejaVuSans-Bold-34" d="M 2356 3675 
L 1038 1722 
L 2356 1722 
L 2356 3675 
z
M 2156 4666 
L 3494 4666 
L 3494 1722 
L 4159 1722 
L 4159 850 
L 3494 850 
L 3494 0 
L 2356 0 
L 2356 850 
L 288 850 
L 288 1881 
L 2156 4666 
z
" transform="scale(0.015625)"/>
     </defs>
     <use xlink:href="#DejaVuSans-Bold-34"/>
     <use xlink:href="#DejaVuSans-Bold-2e" transform="translate(69.580078 0)"/>
     <use xlink:href="#DejaVuSans-Bold-20" transform="translate(107.568359 0)"/>
     <use xlink:href="#DejaVuSans-Bold-54" transform="translate(142.382812 0)"/>
     <use xlink:href="#DejaVuSans-Bold-77" transform="translate(199.595703 0)"/>
     <use xlink:href="#DejaVuSans-Bold-6f" transform="translate(291.978516 0)"/>
     <use xlink:href="#DejaVuSans-Bold-2d" transform="translate(360.679688 0)"/>
     <use xlink:href="#DejaVuSans-Bold-54" transform="translate(387.433594 0)"/>
     <use xlink:href="#DejaVuSans-Bold-69" transform="translate(455.646484 0)"/>
     <use xlink:href="#DejaVuSans-Bold-65" transform="translate(489.923828 0)"/>
     <use xlink:href="#DejaVuSans-Bold-72" transform="translate(557.746094 0)"/>
     <use xlink:href="#DejaVuSans-Bold-20" transform="translate(607.0625 0)"/>
     <use xlink:href="#DejaVuSans-Bold-41" transform="translate(641.876953 0)"/>
     <use xlink:href="#DejaVuSans-Bold-49" transform="translate(719.269531 0)"/>
     <use xlink:href="#DejaVuSans-Bold-20" transform="translate(756.476562 0)"/>
     <use xlink:href="#DejaVuSans-Bold-26" transform="translate(791.291016 0)"/>
     <use xlink:href="#DejaVuSans-Bold-20" transform="translate(878.498047 0)"/>
     <use xlink:href="#DejaVuSans-Bold-52" transform="translate(913.3125 0)"/>
     <use xlink:href="#DejaVuSans-Bold-65" transform="translate(990.314453 0)"/>
     <use xlink:href="#DejaVuSans-Bold-61" transform="translate(1058.136719 0)"/>
     <use xlink:href="#DejaVuSans-Bold-6c" transform="translate(1125.617188 0)"/>
     <use xlink:href="#DejaVuSans-Bold-2d" transform="translate(1159.894531 0)"/>
     <use xlink:href="#DejaVuSans-Bold-54" transform="translate(1186.648438 0)"/>
     <use xlink:href="#DejaVuSans-Bold-69" transform="translate(1254.861328 0)"/>
     <use xlink:href="#DejaVuSans-Bold-6d" transform="translate(1289.138672 0)"/>
     <use xlink:href="#DejaVuSans-Bold-65" transform="translate(1393.337891 0)"/>
     <use xlink:href="#DejaVuSans-Bold-20" transform="translate(1461.160156 0)"/>
     <use xlink:href="#DejaVuSans-Bold-64" transform="translate(1495.974609 0)"/>
     <use xlink:href="#DejaVuSans-Bold-41" transform="translate(1567.556641 0)"/>
     <use xlink:href="#DejaVuSans-Bold-70" transform="translate(1644.949219 0)"/>
     <use xlink:href="#DejaVuSans-Bold-70" transform="translate(1716.53125 0)"/>
     <use xlink:href="#DejaVuSans-Bold-20" transform="translate(1788.113281 0)"/>
     <use xlink:href="#DejaVuSans-Bold-4c" transform="translate(1822.927734 0)"/>
     <use xlink:href="#DejaVuSans-Bold-6f" transform="translate(1886.648438 0)"/>
     <use xlink:href="#DejaVuSans-Bold-6f" transform="translate(1955.349609 0)"/>
     <use xlink:href="#DejaVuSans-Bold-70" transform="translate(2024.050781 0)"/>
    </g>
    <!-- (O-CU / O-DU Shared Memory DPDK) -->
    <g style="fill: #15803d" transform="translate(140.041281 318.227117) scale(0.095 -0.095)">
     <defs>
      <path id="DejaVuSans-Bold-79" d="M 78 3500 
L 1197 3500 
L 2138 1125 
L 2938 3500 
L 4056 3500 
L 2584 -331 
Q 2363 -916 2067 -1148 
Q 1772 -1381 1288 -1381 
L 641 -1381 
L 641 -647 
L 991 -647 
Q 1275 -647 1404 -556 
Q 1534 -466 1606 -231 
L 1638 -134 
L 78 3500 
z
" transform="scale(0.015625)"/>
     </defs>
     <use xlink:href="#DejaVuSans-Bold-28"/>
     <use xlink:href="#DejaVuSans-Bold-4f" transform="translate(45.703125 0)"/>
     <use xlink:href="#DejaVuSans-Bold-2d" transform="translate(132.587891 0)"/>
     <use xlink:href="#DejaVuSans-Bold-43" transform="translate(174.091797 0)"/>
     <use xlink:href="#DejaVuSans-Bold-55" transform="translate(247.480469 0)"/>
     <use xlink:href="#DejaVuSans-Bold-20" transform="translate(328.681641 0)"/>
     <use xlink:href="#DejaVuSans-Bold-2f" transform="translate(363.496094 0)"/>
     <use xlink:href="#DejaVuSans-Bold-20" transform="translate(400.019531 0)"/>
     <use xlink:href="#DejaVuSans-Bold-4f" transform="translate(434.833984 0)"/>
     <use xlink:href="#DejaVuSans-Bold-2d" transform="translate(521.71875 0)"/>
     <use xlink:href="#DejaVuSans-Bold-44" transform="translate(563.222656 0)"/>
     <use xlink:href="#DejaVuSans-Bold-55" transform="translate(646.230469 0)"/>
     <use xlink:href="#DejaVuSans-Bold-20" transform="translate(727.431641 0)"/>
     <use xlink:href="#DejaVuSans-Bold-53" transform="translate(762.246094 0)"/>
     <use xlink:href="#DejaVuSans-Bold-68" transform="translate(834.267578 0)"/>
     <use xlink:href="#DejaVuSans-Bold-61" transform="translate(905.458984 0)"/>
     <use xlink:href="#DejaVuSans-Bold-72" transform="translate(972.939453 0)"/>
     <use xlink:href="#DejaVuSans-Bold-65" transform="translate(1022.255859 0)"/>
     <use xlink:href="#DejaVuSans-Bold-64" transform="translate(1090.078125 0)"/>
     <use xlink:href="#DejaVuSans-Bold-20" transform="translate(1161.660156 0)"/>
     <use xlink:href="#DejaVuSans-Bold-4d" transform="translate(1196.474609 0)"/>
     <use xlink:href="#DejaVuSans-Bold-65" transform="translate(1295.986328 0)"/>
     <use xlink:href="#DejaVuSans-Bold-6d" transform="translate(1363.808594 0)"/>
     <use xlink:href="#DejaVuSans-Bold-6f" transform="translate(1468.007812 0)"/>
     <use xlink:href="#DejaVuSans-Bold-72" transform="translate(1536.708984 0)"/>
     <use xlink:href="#DejaVuSans-Bold-79" transform="translate(1586.025391 0)"/>
     <use xlink:href="#DejaVuSans-Bold-20" transform="translate(1651.210938 0)"/>
     <use xlink:href="#DejaVuSans-Bold-44" transform="translate(1686.025391 0)"/>
     <use xlink:href="#DejaVuSans-Bold-50" transform="translate(1769.033203 0)"/>
     <use xlink:href="#DejaVuSans-Bold-44" transform="translate(1842.324219 0)"/>
     <use xlink:href="#DejaVuSans-Bold-4b" transform="translate(1925.332031 0)"/>
     <use xlink:href="#DejaVuSans-Bold-29" transform="translate(2002.822266 0)"/>
    </g>
    <!-- • Bounding-Box Enforcement (Sub-1ms TTI) -->
    <g style="fill: #15803d" transform="translate(120.211516 328.939258) scale(0.095 -0.095)">
     <defs>
      <path id="DejaVuSans-Bold-42" d="M 2456 2859 
Q 2741 2859 2887 2984 
Q 3034 3109 3034 3353 
Q 3034 3594 2887 3720 
Q 2741 3847 2456 3847 
L 1791 3847 
L 1791 2859 
L 2456 2859 
z
M 2497 819 
Q 2859 819 3042 972 
Q 3225 1125 3225 1434 
Q 3225 1738 3044 1889 
Q 2863 2041 2497 2041 
L 1791 2041 
L 1791 819 
L 2497 819 
z
M 3616 2497 
Q 4003 2384 4215 2081 
Q 4428 1778 4428 1338 
Q 4428 663 3972 331 
Q 3516 0 2584 0 
L 588 0 
L 588 4666 
L 2394 4666 
Q 3366 4666 3802 4372 
Q 4238 4078 4238 3431 
Q 4238 3091 4078 2852 
Q 3919 2613 3616 2497 
z
" transform="scale(0.015625)"/>
     </defs>
     <use xlink:href="#DejaVuSans-Bold-2022"/>
     <use xlink:href="#DejaVuSans-Bold-20" transform="translate(63.916016 0)"/>
     <use xlink:href="#DejaVuSans-Bold-42" transform="translate(98.730469 0)"/>
     <use xlink:href="#DejaVuSans-Bold-6f" transform="translate(174.951172 0)"/>
     <use xlink:href="#DejaVuSans-Bold-75" transform="translate(243.652344 0)"/>
     <use xlink:href="#DejaVuSans-Bold-6e" transform="translate(314.84375 0)"/>
     <use xlink:href="#DejaVuSans-Bold-64" transform="translate(386.035156 0)"/>
     <use xlink:href="#DejaVuSans-Bold-69" transform="translate(457.617188 0)"/>
     <use xlink:href="#DejaVuSans-Bold-6e" transform="translate(491.894531 0)"/>
     <use xlink:href="#DejaVuSans-Bold-67" transform="translate(563.085938 0)"/>
     <use xlink:href="#DejaVuSans-Bold-2d" transform="translate(634.667969 0)"/>
     <use xlink:href="#DejaVuSans-Bold-42" transform="translate(676.171875 0)"/>
     <use xlink:href="#DejaVuSans-Bold-6f" transform="translate(752.392578 0)"/>
     <use xlink:href="#DejaVuSans-Bold-78" transform="translate(821.09375 0)"/>
     <use xlink:href="#DejaVuSans-Bold-20" transform="translate(885.595703 0)"/>
     <use xlink:href="#DejaVuSans-Bold-45" transform="translate(920.410156 0)"/>
     <use xlink:href="#DejaVuSans-Bold-6e" transform="translate(988.720703 0)"/>
     <use xlink:href="#DejaVuSans-Bold-66" transform="translate(1059.912109 0)"/>
     <use xlink:href="#DejaVuSans-Bold-6f" transform="translate(1103.417969 0)"/>
     <use xlink:href="#DejaVuSans-Bold-72" transform="translate(1172.119141 0)"/>
     <use xlink:href="#DejaVuSans-Bold-63" transform="translate(1221.435547 0)"/>
     <use xlink:href="#DejaVuSans-Bold-65" transform="translate(1280.712891 0)"/>
     <use xlink:href="#DejaVuSans-Bold-6d" transform="translate(1348.535156 0)"/>
     <use xlink:href="#DejaVuSans-Bold-65" transform="translate(1452.734375 0)"/>
     <use xlink:href="#DejaVuSans-Bold-6e" transform="translate(1520.556641 0)"/>
     <use xlink:href="#DejaVuSans-Bold-74" transform="translate(1591.748047 0)"/>
     <use xlink:href="#DejaVuSans-Bold-20" transform="translate(1639.550781 0)"/>
     <use xlink:href="#DejaVuSans-Bold-28" transform="translate(1674.365234 0)"/>
     <use xlink:href="#DejaVuSans-Bold-53" transform="translate(1720.068359 0)"/>
     <use xlink:href="#DejaVuSans-Bold-75" transform="translate(1792.089844 0)"/>
     <use xlink:href="#DejaVuSans-Bold-62" transform="translate(1863.28125 0)"/>
     <use xlink:href="#DejaVuSans-Bold-2d" transform="translate(1934.863281 0)"/>
     <use xlink:href="#DejaVuSans-Bold-31" transform="translate(1976.367188 0)"/>
     <use xlink:href="#DejaVuSans-Bold-6d" transform="translate(2045.947266 0)"/>
     <use xlink:href="#DejaVuSans-Bold-73" transform="translate(2150.146484 0)"/>
     <use xlink:href="#DejaVuSans-Bold-20" transform="translate(2209.667969 0)"/>
     <use xlink:href="#DejaVuSans-Bold-54" transform="translate(2244.482422 0)"/>
     <use xlink:href="#DejaVuSans-Bold-54" transform="translate(2314.945312 0)"/>
     <use xlink:href="#DejaVuSans-Bold-49" transform="translate(2383.158203 0)"/>
     <use xlink:href="#DejaVuSans-Bold-29" transform="translate(2420.365234 0)"/>
    </g>
    <!-- • Arbitragem de Alta Frequência (TSN/ISAC) -->
    <g style="fill: #15803d" transform="translate(119.601438 340.107398) scale(0.095 -0.095)">
     <defs>
      <path id="DejaVuSans-Bold-71" d="M 2181 2772 
Q 1825 2772 1636 2509 
Q 1447 2247 1447 1747 
Q 1447 1247 1636 984 
Q 1825 722 2181 722 
Q 2541 722 2730 984 
Q 2919 1247 2919 1747 
Q 2919 2247 2730 2509 
Q 2541 2772 2181 2772 
z
M 2919 506 
Q 2688 197 2409 53 
Q 2131 -91 1766 -91 
Q 1119 -91 703 423 
Q 288 938 288 1747 
Q 288 2556 703 3067 
Q 1119 3578 1766 3578 
Q 2131 3578 2409 3434 
Q 2688 3291 2919 2981 
L 2919 3500 
L 4044 3500 
L 4044 -1331 
L 2919 -1331 
L 2919 506 
z
" transform="scale(0.015625)"/>
      <path id="DejaVuSans-Bold-ea" d="M 4031 1759 
L 4031 1441 
L 1416 1441 
Q 1456 1047 1700 850 
Q 1944 653 2381 653 
Q 2734 653 3104 758 
Q 3475 863 3866 1075 
L 3866 213 
Q 3469 63 3072 -14 
Q 2675 -91 2278 -91 
Q 1328 -91 801 392 
Q 275 875 275 1747 
Q 275 2603 792 3093 
Q 1309 3584 2216 3584 
Q 3041 3584 3536 3087 
Q 4031 2591 4031 1759 
z
M 2881 2131 
Q 2881 2450 2695 2645 
Q 2509 2841 2209 2841 
Q 1884 2841 1681 2658 
Q 1478 2475 1428 2131 
L 2881 2131 
z
M 1902 5119 
L 2658 5119 
L 3458 3944 
L 2902 3944 
L 2280 4647 
L 1658 3944 
L 1102 3944 
L 1902 5119 
z
" transform="scale(0.015625)"/>
     </defs>
     <use xlink:href="#DejaVuSans-Bold-2022"/>
     <use xlink:href="#DejaVuSans-Bold-20" transform="translate(63.916016 0)"/>
     <use xlink:href="#DejaVuSans-Bold-41" transform="translate(98.730469 0)"/>
     <use xlink:href="#DejaVuSans-Bold-72" transform="translate(176.123047 0)"/>
     <use xlink:href="#DejaVuSans-Bold-62" transform="translate(225.439453 0)"/>
     <use xlink:href="#DejaVuSans-Bold-69" transform="translate(297.021484 0)"/>
     <use xlink:href="#DejaVuSans-Bold-74" transform="translate(331.298828 0)"/>
     <use xlink:href="#DejaVuSans-Bold-72" transform="translate(379.101562 0)"/>
     <use xlink:href="#DejaVuSans-Bold-61" transform="translate(428.417969 0)"/>
     <use xlink:href="#DejaVuSans-Bold-67" transform="translate(495.898438 0)"/>
     <use xlink:href="#DejaVuSans-Bold-65" transform="translate(567.480469 0)"/>
     <use xlink:href="#DejaVuSans-Bold-6d" transform="translate(635.302734 0)"/>
     <use xlink:href="#DejaVuSans-Bold-20" transform="translate(739.501953 0)"/>
     <use xlink:href="#DejaVuSans-Bold-64" transform="translate(774.316406 0)"/>
     <use xlink:href="#DejaVuSans-Bold-65" transform="translate(845.898438 0)"/>
     <use xlink:href="#DejaVuSans-Bold-20" transform="translate(913.720703 0)"/>
     <use xlink:href="#DejaVuSans-Bold-41" transform="translate(948.535156 0)"/>
     <use xlink:href="#DejaVuSans-Bold-6c" transform="translate(1025.927734 0)"/>
     <use xlink:href="#DejaVuSans-Bold-74" transform="translate(1060.205078 0)"/>
     <use xlink:href="#DejaVuSans-Bold-61" transform="translate(1108.007812 0)"/>
     <use xlink:href="#DejaVuSans-Bold-20" transform="translate(1175.488281 0)"/>
     <use xlink:href="#DejaVuSans-Bold-46" transform="translate(1210.302734 0)"/>
     <use xlink:href="#DejaVuSans-Bold-72" transform="translate(1272.238281 0)"/>
     <use xlink:href="#DejaVuSans-Bold-65" transform="translate(1321.554688 0)"/>
     <use xlink:href="#DejaVuSans-Bold-71" transform="translate(1389.376953 0)"/>
     <use xlink:href="#DejaVuSans-Bold-75" transform="translate(1460.958984 0)"/>
     <use xlink:href="#DejaVuSans-Bold-ea" transform="translate(1532.150391 0)"/>
     <use xlink:href="#DejaVuSans-Bold-6e" transform="translate(1599.972656 0)"/>
     <use xlink:href="#DejaVuSans-Bold-63" transform="translate(1671.164062 0)"/>
     <use xlink:href="#DejaVuSans-Bold-69" transform="translate(1730.441406 0)"/>
     <use xlink:href="#DejaVuSans-Bold-61" transform="translate(1764.71875 0)"/>
     <use xlink:href="#DejaVuSans-Bold-20" transform="translate(1832.199219 0)"/>
     <use xlink:href="#DejaVuSans-Bold-28" transform="translate(1867.013672 0)"/>
     <use xlink:href="#DejaVuSans-Bold-54" transform="translate(1912.716797 0)"/>
     <use xlink:href="#DejaVuSans-Bold-53" transform="translate(1980.929688 0)"/>
     <use xlink:href="#DejaVuSans-Bold-4e" transform="translate(2052.951172 0)"/>
     <use xlink:href="#DejaVuSans-Bold-2f" transform="translate(2136.642578 0)"/>
     <use xlink:href="#DejaVuSans-Bold-49" transform="translate(2173.166016 0)"/>
     <use xlink:href="#DejaVuSans-Bold-53" transform="translate(2210.373047 0)"/>
     <use xlink:href="#DejaVuSans-Bold-41" transform="translate(2282.394531 0)"/>
     <use xlink:href="#DejaVuSans-Bold-43" transform="translate(2359.787109 0)"/>
     <use xlink:href="#DejaVuSans-Bold-29" transform="translate(2433.175781 0)"/>
    </g>
   </g>
   <g id="text_6">
    <!-- 5. Fechamento Causal E2 Malha Fechada -->
    <g style="fill: #c2410c" transform="translate(456.592391 302.278547) scale(0.095 -0.095)">
     <use xlink:href="#DejaVuSans-Bold-35"/>
     <use xlink:href="#DejaVuSans-Bold-2e" transform="translate(69.580078 0)"/>
     <use xlink:href="#DejaVuSans-Bold-20" transform="translate(107.568359 0)"/>
     <use xlink:href="#DejaVuSans-Bold-46" transform="translate(142.382812 0)"/>
     <use xlink:href="#DejaVuSans-Bold-65" transform="translate(206.693359 0)"/>
     <use xlink:href="#DejaVuSans-Bold-63" transform="translate(274.515625 0)"/>
     <use xlink:href="#DejaVuSans-Bold-68" transform="translate(333.792969 0)"/>
     <use xlink:href="#DejaVuSans-Bold-61" transform="translate(404.984375 0)"/>
     <use xlink:href="#DejaVuSans-Bold-6d" transform="translate(472.464844 0)"/>
     <use xlink:href="#DejaVuSans-Bold-65" transform="translate(576.664062 0)"/>
     <use xlink:href="#DejaVuSans-Bold-6e" transform="translate(644.486328 0)"/>
     <use xlink:href="#DejaVuSans-Bold-74" transform="translate(715.677734 0)"/>
     <use xlink:href="#DejaVuSans-Bold-6f" transform="translate(763.480469 0)"/>
     <use xlink:href="#DejaVuSans-Bold-20" transform="translate(832.181641 0)"/>
     <use xlink:href="#DejaVuSans-Bold-43" transform="translate(866.996094 0)"/>
     <use xlink:href="#DejaVuSans-Bold-61" transform="translate(940.384766 0)"/>
     <use xlink:href="#DejaVuSans-Bold-75" transform="translate(1007.865234 0)"/>
     <use xlink:href="#DejaVuSans-Bold-73" transform="translate(1079.056641 0)"/>
     <use xlink:href="#DejaVuSans-Bold-61" transform="translate(1138.578125 0)"/>
     <use xlink:href="#DejaVuSans-Bold-6c" transform="translate(1206.058594 0)"/>
     <use xlink:href="#DejaVuSans-Bold-20" transform="translate(1240.335938 0)"/>
     <use xlink:href="#DejaVuSans-Bold-45" transform="translate(1275.150391 0)"/>
     <use xlink:href="#DejaVuSans-Bold-32" transform="translate(1343.460938 0)"/>
     <use xlink:href="#DejaVuSans-Bold-20" transform="translate(1413.041016 0)"/>
     <use xlink:href="#DejaVuSans-Bold-4d" transform="translate(1447.855469 0)"/>
     <use xlink:href="#DejaVuSans-Bold-61" transform="translate(1547.367188 0)"/>
     <use xlink:href="#DejaVuSans-Bold-6c" transform="translate(1614.847656 0)"/>
     <use xlink:href="#DejaVuSans-Bold-68" transform="translate(1649.125 0)"/>
     <use xlink:href="#DejaVuSans-Bold-61" transform="translate(1720.316406 0)"/>
     <use xlink:href="#DejaVuSans-Bold-20" transform="translate(1787.796875 0)"/>
     <use xlink:href="#DejaVuSans-Bold-46" transform="translate(1822.611328 0)"/>
     <use xlink:href="#DejaVuSans-Bold-65" transform="translate(1886.921875 0)"/>
     <use xlink:href="#DejaVuSans-Bold-63" transform="translate(1954.744141 0)"/>
     <use xlink:href="#DejaVuSans-Bold-68" transform="translate(2014.021484 0)"/>
     <use xlink:href="#DejaVuSans-Bold-61" transform="translate(2085.212891 0)"/>
     <use xlink:href="#DejaVuSans-Bold-64" transform="translate(2152.693359 0)"/>
     <use xlink:href="#DejaVuSans-Bold-61" transform="translate(2224.275391 0)"/>
    </g>
    <!-- (E2SM-RC Format 1 Policy) -->
    <g style="fill: #c2410c" transform="translate(494.032039 312.916469) scale(0.095 -0.095)">
     <use xlink:href="#DejaVuSans-Bold-28"/>
     <use xlink:href="#DejaVuSans-Bold-45" transform="translate(45.703125 0)"/>
     <use xlink:href="#DejaVuSans-Bold-32" transform="translate(114.013672 0)"/>
     <use xlink:href="#DejaVuSans-Bold-53" transform="translate(183.59375 0)"/>
     <use xlink:href="#DejaVuSans-Bold-4d" transform="translate(255.615234 0)"/>
     <use xlink:href="#DejaVuSans-Bold-2d" transform="translate(355.126953 0)"/>
     <use xlink:href="#DejaVuSans-Bold-52" transform="translate(396.630859 0)"/>
     <use xlink:href="#DejaVuSans-Bold-43" transform="translate(473.632812 0)"/>
     <use xlink:href="#DejaVuSans-Bold-20" transform="translate(547.021484 0)"/>
     <use xlink:href="#DejaVuSans-Bold-46" transform="translate(581.835938 0)"/>
     <use xlink:href="#DejaVuSans-Bold-6f" transform="translate(646.146484 0)"/>
     <use xlink:href="#DejaVuSans-Bold-72" transform="translate(714.847656 0)"/>
     <use xlink:href="#DejaVuSans-Bold-6d" transform="translate(764.164062 0)"/>
     <use xlink:href="#DejaVuSans-Bold-61" transform="translate(868.363281 0)"/>
     <use xlink:href="#DejaVuSans-Bold-74" transform="translate(935.84375 0)"/>
     <use xlink:href="#DejaVuSans-Bold-20" transform="translate(983.646484 0)"/>
     <use xlink:href="#DejaVuSans-Bold-31" transform="translate(1018.460938 0)"/>
     <use xlink:href="#DejaVuSans-Bold-20" transform="translate(1088.041016 0)"/>
     <use xlink:href="#DejaVuSans-Bold-50" transform="translate(1122.855469 0)"/>
     <use xlink:href="#DejaVuSans-Bold-6f" transform="translate(1196.146484 0)"/>
     <use xlink:href="#DejaVuSans-Bold-6c" transform="translate(1264.847656 0)"/>
     <use xlink:href="#DejaVuSans-Bold-69" transform="translate(1299.125 0)"/>
     <use xlink:href="#DejaVuSans-Bold-63" transform="translate(1333.402344 0)"/>
     <use xlink:href="#DejaVuSans-Bold-79" transform="translate(1392.679688 0)"/>
     <use xlink:href="#DejaVuSans-Bold-29" transform="translate(1457.865234 0)"/>
    </g>
    <!-- • Despacho de Parâmetros de Rádio -->
    <g style="fill: #c2410c" transform="translate(468.706375 324.084609) scale(0.095 -0.095)">
     <defs>
      <path id="DejaVuSans-Bold-e1" d="M 2106 1575 
Q 1756 1575 1579 1456 
Q 1403 1338 1403 1106 
Q 1403 894 1545 773 
Q 1688 653 1941 653 
Q 2256 653 2472 879 
Q 2688 1106 2688 1447 
L 2688 1575 
L 2106 1575 
z
M 3816 1997 
L 3816 0 
L 2688 0 
L 2688 519 
Q 2463 200 2181 54 
Q 1900 -91 1497 -91 
Q 953 -91 614 226 
Q 275 544 275 1050 
Q 275 1666 698 1953 
Q 1122 2241 2028 2241 
L 2688 2241 
L 2688 2328 
Q 2688 2594 2478 2717 
Q 2269 2841 1825 2841 
Q 1466 2841 1156 2769 
Q 847 2697 581 2553 
L 581 3406 
Q 941 3494 1303 3539 
Q 1666 3584 2028 3584 
Q 2975 3584 3395 3211 
Q 3816 2838 3816 1997 
z
M 2606 5119 
L 3490 5119 
L 2337 3944 
L 1725 3944 
L 2606 5119 
z
" transform="scale(0.015625)"/>
     </defs>
     <use xlink:href="#DejaVuSans-Bold-2022"/>
     <use xlink:href="#DejaVuSans-Bold-20" transform="translate(63.916016 0)"/>
     <use xlink:href="#DejaVuSans-Bold-44" transform="translate(98.730469 0)"/>
     <use xlink:href="#DejaVuSans-Bold-65" transform="translate(181.738281 0)"/>
     <use xlink:href="#DejaVuSans-Bold-73" transform="translate(249.560547 0)"/>
     <use xlink:href="#DejaVuSans-Bold-70" transform="translate(309.082031 0)"/>
     <use xlink:href="#DejaVuSans-Bold-61" transform="translate(380.664062 0)"/>
     <use xlink:href="#DejaVuSans-Bold-63" transform="translate(448.144531 0)"/>
     <use xlink:href="#DejaVuSans-Bold-68" transform="translate(507.421875 0)"/>
     <use xlink:href="#DejaVuSans-Bold-6f" transform="translate(578.613281 0)"/>
     <use xlink:href="#DejaVuSans-Bold-20" transform="translate(647.314453 0)"/>
     <use xlink:href="#DejaVuSans-Bold-64" transform="translate(682.128906 0)"/>
     <use xlink:href="#DejaVuSans-Bold-65" transform="translate(753.710938 0)"/>
     <use xlink:href="#DejaVuSans-Bold-20" transform="translate(821.533203 0)"/>
     <use xlink:href="#DejaVuSans-Bold-50" transform="translate(856.347656 0)"/>
     <use xlink:href="#DejaVuSans-Bold-61" transform="translate(927.013672 0)"/>
     <use xlink:href="#DejaVuSans-Bold-72" transform="translate(994.494141 0)"/>
     <use xlink:href="#DejaVuSans-Bold-e2" transform="translate(1043.810547 0)"/>
     <use xlink:href="#DejaVuSans-Bold-6d" transform="translate(1111.291016 0)"/>
     <use xlink:href="#DejaVuSans-Bold-65" transform="translate(1215.490234 0)"/>
     <use xlink:href="#DejaVuSans-Bold-74" transform="translate(1283.3125 0)"/>
     <use xlink:href="#DejaVuSans-Bold-72" transform="translate(1331.115234 0)"/>
     <use xlink:href="#DejaVuSans-Bold-6f" transform="translate(1380.431641 0)"/>
     <use xlink:href="#DejaVuSans-Bold-73" transform="translate(1449.132812 0)"/>
     <use xlink:href="#DejaVuSans-Bold-20" transform="translate(1508.654297 0)"/>
     <use xlink:href="#DejaVuSans-Bold-64" transform="translate(1543.46875 0)"/>
     <use xlink:href="#DejaVuSans-Bold-65" transform="translate(1615.050781 0)"/>
     <use xlink:href="#DejaVuSans-Bold-20" transform="translate(1682.873047 0)"/>
     <use xlink:href="#DejaVuSans-Bold-52" transform="translate(1717.6875 0)"/>
     <use xlink:href="#DejaVuSans-Bold-e1" transform="translate(1794.689453 0)"/>
     <use xlink:href="#DejaVuSans-Bold-64" transform="translate(1862.169922 0)"/>
     <use xlink:href="#DejaVuSans-Bold-69" transform="translate(1933.751953 0)"/>
     <use xlink:href="#DejaVuSans-Bold-6f" transform="translate(1968.029297 0)"/>
    </g>
    <!-- • Verificação Causal E2-ACK -->
    <g style="fill: #c2410c" transform="translate(490.749344 334.788437) scale(0.095 -0.095)">
     <use xlink:href="#DejaVuSans-Bold-2022"/>
     <use xlink:href="#DejaVuSans-Bold-20" transform="translate(63.916016 0)"/>
     <use xlink:href="#DejaVuSans-Bold-56" transform="translate(98.730469 0)"/>
     <use xlink:href="#DejaVuSans-Bold-65" transform="translate(170.623047 0)"/>
     <use xlink:href="#DejaVuSans-Bold-72" transform="translate(238.445312 0)"/>
     <use xlink:href="#DejaVuSans-Bold-69" transform="translate(287.761719 0)"/>
     <use xlink:href="#DejaVuSans-Bold-66" transform="translate(322.039062 0)"/>
     <use xlink:href="#DejaVuSans-Bold-69" transform="translate(365.544922 0)"/>
     <use xlink:href="#DejaVuSans-Bold-63" transform="translate(399.822266 0)"/>
     <use xlink:href="#DejaVuSans-Bold-61" transform="translate(459.099609 0)"/>
     <use xlink:href="#DejaVuSans-Bold-e7" transform="translate(526.580078 0)"/>
     <use xlink:href="#DejaVuSans-Bold-e3" transform="translate(585.857422 0)"/>
     <use xlink:href="#DejaVuSans-Bold-6f" transform="translate(653.337891 0)"/>
     <use xlink:href="#DejaVuSans-Bold-20" transform="translate(722.039062 0)"/>
     <use xlink:href="#DejaVuSans-Bold-43" transform="translate(756.853516 0)"/>
     <use xlink:href="#DejaVuSans-Bold-61" transform="translate(830.242188 0)"/>
     <use xlink:href="#DejaVuSans-Bold-75" transform="translate(897.722656 0)"/>
     <use xlink:href="#DejaVuSans-Bold-73" transform="translate(968.914062 0)"/>
     <use xlink:href="#DejaVuSans-Bold-61" transform="translate(1028.435547 0)"/>
     <use xlink:href="#DejaVuSans-Bold-6c" transform="translate(1095.916016 0)"/>
     <use xlink:href="#DejaVuSans-Bold-20" transform="translate(1130.193359 0)"/>
     <use xlink:href="#DejaVuSans-Bold-45" transform="translate(1165.007812 0)"/>
     <use xlink:href="#DejaVuSans-Bold-32" transform="translate(1233.318359 0)"/>
     <use xlink:href="#DejaVuSans-Bold-2d" transform="translate(1302.898438 0)"/>
     <use xlink:href="#DejaVuSans-Bold-41" transform="translate(1344.402344 0)"/>
     <use xlink:href="#DejaVuSans-Bold-43" transform="translate(1421.794922 0)"/>
     <use xlink:href="#DejaVuSans-Bold-4b" transform="translate(1495.183594 0)"/>
    </g>
    <!-- • Erradicação de Churn (CRE=100%) -->
    <g style="fill: #c2410c" transform="translate(468.352352 345.492266) scale(0.095 -0.095)">
     <defs>
      <path id="DejaVuSans-Bold-3d" d="M 678 3084 
L 4684 3084 
L 4684 2350 
L 678 2350 
L 678 3084 
z
M 678 1663 
L 4684 1663 
L 4684 922 
L 678 922 
L 678 1663 
z
" transform="scale(0.015625)"/>
      <path id="DejaVuSans-Bold-25" d="M 4959 1925 
Q 4738 1925 4616 1733 
Q 4494 1541 4494 1184 
Q 4494 825 4614 633 
Q 4734 441 4959 441 
Q 5184 441 5303 633 
Q 5422 825 5422 1184 
Q 5422 1541 5301 1733 
Q 5181 1925 4959 1925 
z
M 4959 2450 
Q 5541 2450 5875 2112 
Q 6209 1775 6209 1184 
Q 6209 594 5875 251 
Q 5541 -91 4959 -91 
Q 4378 -91 4042 251 
Q 3706 594 3706 1184 
Q 3706 1772 4042 2111 
Q 4378 2450 4959 2450 
z
M 2094 -91 
L 1403 -91 
L 4319 4750 
L 5013 4750 
L 2094 -91 
z
M 1453 4750 
Q 2034 4750 2367 4411 
Q 2700 4072 2700 3481 
Q 2700 2891 2367 2550 
Q 2034 2209 1453 2209 
Q 872 2209 539 2550 
Q 206 2891 206 3481 
Q 206 4072 539 4411 
Q 872 4750 1453 4750 
z
M 1453 4225 
Q 1228 4225 1106 4031 
Q 984 3838 984 3481 
Q 984 3122 1106 2926 
Q 1228 2731 1453 2731 
Q 1678 2731 1798 2926 
Q 1919 3122 1919 3481 
Q 1919 3838 1797 4031 
Q 1675 4225 1453 4225 
z
" transform="scale(0.015625)"/>
     </defs>
     <use xlink:href="#DejaVuSans-Bold-2022"/>
     <use xlink:href="#DejaVuSans-Bold-20" transform="translate(63.916016 0)"/>
     <use xlink:href="#DejaVuSans-Bold-45" transform="translate(98.730469 0)"/>
     <use xlink:href="#DejaVuSans-Bold-72" transform="translate(167.041016 0)"/>
     <use xlink:href="#DejaVuSans-Bold-72" transform="translate(216.357422 0)"/>
     <use xlink:href="#DejaVuSans-Bold-61" transform="translate(265.673828 0)"/>
     <use xlink:href="#DejaVuSans-Bold-64" transform="translate(333.154297 0)"/>
     <use xlink:href="#DejaVuSans-Bold-69" transform="translate(404.736328 0)"/>
     <use xlink:href="#DejaVuSans-Bold-63" transform="translate(439.013672 0)"/>
     <use xlink:href="#DejaVuSans-Bold-61" transform="translate(498.291016 0)"/>
     <use xlink:href="#DejaVuSans-Bold-e7" transform="translate(565.771484 0)"/>
     <use xlink:href="#DejaVuSans-Bold-e3" transform="translate(625.048828 0)"/>
     <use xlink:href="#DejaVuSans-Bold-6f" transform="translate(692.529297 0)"/>
     <use xlink:href="#DejaVuSans-Bold-20" transform="translate(761.230469 0)"/>
     <use xlink:href="#DejaVuSans-Bold-64" transform="translate(796.044922 0)"/>
     <use xlink:href="#DejaVuSans-Bold-65" transform="translate(867.626953 0)"/>
     <use xlink:href="#DejaVuSans-Bold-20" transform="translate(935.449219 0)"/>
     <use xlink:href="#DejaVuSans-Bold-43" transform="translate(970.263672 0)"/>
     <use xlink:href="#DejaVuSans-Bold-68" transform="translate(1043.652344 0)"/>
     <use xlink:href="#DejaVuSans-Bold-75" transform="translate(1114.84375 0)"/>
     <use xlink:href="#DejaVuSans-Bold-72" transform="translate(1186.035156 0)"/>
     <use xlink:href="#DejaVuSans-Bold-6e" transform="translate(1235.351562 0)"/>
     <use xlink:href="#DejaVuSans-Bold-20" transform="translate(1306.542969 0)"/>
     <use xlink:href="#DejaVuSans-Bold-28" transform="translate(1341.357422 0)"/>
     <use xlink:href="#DejaVuSans-Bold-43" transform="translate(1387.060547 0)"/>
     <use xlink:href="#DejaVuSans-Bold-52" transform="translate(1460.449219 0)"/>
     <use xlink:href="#DejaVuSans-Bold-45" transform="translate(1537.451172 0)"/>
     <use xlink:href="#DejaVuSans-Bold-3d" transform="translate(1605.761719 0)"/>
     <use xlink:href="#DejaVuSans-Bold-31" transform="translate(1689.550781 0)"/>
     <use xlink:href="#DejaVuSans-Bold-30" transform="translate(1759.130859 0)"/>
     <use xlink:href="#DejaVuSans-Bold-30" transform="translate(1828.710938 0)"/>
     <use xlink:href="#DejaVuSans-Bold-25" transform="translate(1898.291016 0)"/>
     <use xlink:href="#DejaVuSans-Bold-29" transform="translate(1998.486328 0)"/>
    </g>
   </g>
  </g>
 </g>
 <defs>
  <clipPath id="p3baae30c4f">
   <rect x="10.8" y="10.8" width="781.2" height="443.52"/>
  </clipPath>
 </defs>
</svg>
